<?xml version="1.0" encoding="UTF-8" standalone="no"?>
<!-- Created with Inkscape (http://www.inkscape.org/) -->

<svg
   width="240mm"
   height="120mm"
   viewBox="0 0 240 120"
   version="1.1"
   id="svg4655"
   inkscape:version="1.2.1 (9c6d41e410, 2022-07-14)"
   sodipodi:docname="cat_optimize.svg"
   xmlns:inkscape="http://www.inkscape.org/namespaces/inkscape"
   xmlns:sodipodi="http://sodipodi.sourceforge.net/DTD/sodipodi-0.dtd"
   xmlns:xlink="http://www.w3.org/1999/xlink"
   xmlns="http://www.w3.org/2000/svg"
   xmlns:svg="http://www.w3.org/2000/svg">
  <sodipodi:namedview
     id="namedview4657"
     pagecolor="#ffffff"
     bordercolor="#eeeeee"
     borderopacity="1"
     inkscape:showpageshadow="0"
     inkscape:pageopacity="0"
     inkscape:pagecheckerboard="0"
     inkscape:deskcolor="#d1d1d1"
     inkscape:document-units="mm"
     showgrid="false"
     inkscape:current-layer="layer2" />
  <defs
     id="defs4652">
    <linearGradient
       inkscape:collect="always"
       id="linearGradient2164">
      <stop
         style="stop-color:#2ff9c2;stop-opacity:1;"
         offset="0"
         id="stop2160" />
      <stop
         style="stop-color:#a0d9ff;stop-opacity:0;"
         offset="1"
         id="stop2162" />
    </linearGradient>
    <radialGradient
       inkscape:collect="always"
       xlink:href="#linearGradient2164"
       id="radialGradient2166"
       cx="80.568565"
       cy="-290.70462"
       fx="80.568565"
       fy="-290.70462"
       r="100.44098"
       gradientTransform="matrix(1.2161308,-1.1289569,1.0546086,1.1360415,299.0128,153.86296)"
       gradientUnits="userSpaceOnUse" />
    <radialGradient
       inkscape:collect="always"
       xlink:href="#linearGradient2164"
       id="radialGradient334"
       gradientUnits="userSpaceOnUse"
       gradientTransform="matrix(1.2161308,-1.1289569,1.0546086,1.1360415,299.0128,153.86296)"
       cx="80.568565"
       cy="-290.70462"
       fx="80.568565"
       fy="-290.70462"
       r="100.44098" />
    <radialGradient
       inkscape:collect="always"
       xlink:href="#linearGradient2164"
       id="radialGradient336"
       gradientUnits="userSpaceOnUse"
       gradientTransform="matrix(1.2161308,-1.1289569,1.0546086,1.1360415,299.0128,153.86296)"
       cx="80.568565"
       cy="-290.70462"
       fx="80.568565"
       fy="-290.70462"
       r="100.44098" />
    <radialGradient
       inkscape:collect="always"
       xlink:href="#linearGradient2164"
       id="radialGradient338"
       gradientUnits="userSpaceOnUse"
       gradientTransform="matrix(1.2161308,-1.1289569,1.0546086,1.1360415,299.0128,153.86296)"
       cx="80.568565"
       cy="-290.70462"
       fx="80.568565"
       fy="-290.70462"
       r="100.44098" />
    <radialGradient
       inkscape:collect="always"
       xlink:href="#linearGradient2164"
       id="radialGradient340"
       gradientUnits="userSpaceOnUse"
       gradientTransform="matrix(1.2161308,-1.1289569,1.0546086,1.1360415,299.0128,153.86296)"
       cx="80.568565"
       cy="-290.70462"
       fx="80.568565"
       fy="-290.70462"
       r="100.44098" />
    <radialGradient
       inkscape:collect="always"
       xlink:href="#linearGradient2164"
       id="radialGradient342"
       gradientUnits="userSpaceOnUse"
       gradientTransform="matrix(1.2161308,-1.1289569,1.0546086,1.1360415,299.0128,153.86296)"
       cx="80.568565"
       cy="-290.70462"
       fx="80.568565"
       fy="-290.70462"
       r="100.44098" />
    <radialGradient
       inkscape:collect="always"
       xlink:href="#linearGradient2164"
       id="radialGradient344"
       gradientUnits="userSpaceOnUse"
       gradientTransform="matrix(1.2161308,-1.1289569,1.0546086,1.1360415,299.0128,153.86296)"
       cx="80.568565"
       cy="-290.70462"
       fx="80.568565"
       fy="-290.70462"
       r="100.44098" />
    <radialGradient
       inkscape:collect="always"
       xlink:href="#linearGradient2164"
       id="radialGradient346"
       gradientUnits="userSpaceOnUse"
       gradientTransform="matrix(1.2161308,-1.1289569,1.0546086,1.1360415,299.0128,153.86296)"
       cx="80.568565"
       cy="-290.70462"
       fx="80.568565"
       fy="-290.70462"
       r="100.44098" />
  </defs>
  <g
     inkscape:label="white"
     inkscape:groupmode="layer"
     id="layer1"
     style="display:inline"
     transform="matrix(0.93818897,0,0,0.42623043,12.845934,-4.4310447)">
    <rect
       style="font-variation-settings:normal;display:inline;opacity:1;vector-effect:none;fill:#ffffff;fill-opacity:1;fill-rule:evenodd;stroke:none;stroke-width:0.418403;stroke-linecap:butt;stroke-linejoin:miter;stroke-miterlimit:4;stroke-dasharray:none;stroke-dashoffset:0;stroke-opacity:1;-inkscape-stroke:none;stop-color:#000000;stop-opacity:1"
       id="rect983"
       width="56.674282"
       height="123.86678"
       x="69.40786"
       y="55.909416" />
    <text
       xml:space="preserve"
       style="font-size:10.0417px;line-height:1.25;font-family:sans-serif;-inkscape-font-specification:'sans-serif, Normal';font-variant-ligatures:none;stroke-width:0.418403"
       x="108.59423"
       y="144.6839"
       id="text3393"
       transform="scale(0.67402664,1.4836209)"><tspan
         sodipodi:role="line"
         id="tspan3391"
         style="stroke-width:0.418403"
         x="108.59423"
         y="144.6839">white background</tspan></text>
  </g>
  <g
     inkscape:groupmode="layer"
     id="layer2"
     inkscape:label="cat"
     style="display:inline">
    <g
       id="g510"
       transform="matrix(0.26458333,0,0,0.26458333,78.323541,125.94357)"
       style="display:inline;fill:url(#radialGradient2166);fill-opacity:1;stroke:none"
       inkscape:label="g510">
      <path
         style="fill:url(#radialGradient334);fill-opacity:1;stroke:none"
         d="m 84.858918,-205.53777 c -4.125,-0.51244 -7.9275,-1.35437 -8.45,-1.87096 -0.5225,-0.51659 -1.968341,-0.93926 -3.21298,-0.93926 -14.37668,0 -46.691854,-23.66206 -58.042057,-42.5 -11.3520093,-18.84094 -14.46938183,-29.23122 -15.08198427,-50.26865 -0.42935392,-14.74447 -0.32099087,-16.21003 1.15664227,-15.64301 0.8967087,0.3441 1.6303795,1.23106 1.6303795,1.97103 0,2.93387 9.6372045,11.08201 14.6356385,12.37425 2.675398,0.69167 6.005128,1.67909 7.399398,2.19426 2.202062,0.81365 7.200937,1.23565 20.714963,1.74873 l 3.25,0.12339 v 5.54284 c 0,5.21711 0.273511,5.83525 4.654155,10.51851 l 4.654155,4.97567 -2.884647,5.73149 c -1.586556,3.15232 -4.503402,8.20649 -6.48188,11.23149 -4.716106,7.2107 -4.993599,8.14234 -3.451593,11.58806 0.716723,1.60157 1.592285,3.58694 1.945693,4.41194 6.484692,15.13795 27.564117,24.92664 27.564117,12.8 0,-2.64712 0.6357,-2.30732 6.014535,3.21492 2.945661,3.0242 6.103829,5.25875 7.955885,5.62916 1.689159,0.33784 3.313392,1.00612 3.609406,1.48508 0.872565,1.41184 5.296446,0.99802 7.955356,-0.74417 4.26742,-2.79612 2.84662,-9.38499 -2.02374,-9.38499 -10.403749,0 -23.965497,-20.89314 -16.540433,-25.48208 0.534055,-0.33007 1.275454,-2.89513 1.647553,-5.70015 l 0.676543,-5.10003 9.602447,0.63596 c 5.281347,0.34977 14.62481,0.63828 20.76324,0.64113 l 11.1608,0.005 2.3392,4.75 c 2.17985,4.42641 2.31731,5.72495 2.01773,19.06141 -0.36714,16.34446 -0.0599,17.18859 6.25683,17.18859 3.3507,0 4.76645,0.6012 7.06465,3 1.5808,1.65 3.68999,3 4.68709,3 0.9971,0 1.81291,0.43682 1.81291,0.9707 0,1.74488 -19.27688,10.0293 -23.33702,10.0293 -1.24464,0 -2.69048,0.41062 -3.21298,0.91248 -2.60128,2.49855 -24.795659,3.59397 -38.450002,1.89774 z m 72.258762,-20.46958 c -0.68268,-0.27581 -1.8668,-1.92778 -2.63137,-3.67105 -0.76457,-1.74328 -2.11851,-4.8126 -3.00876,-6.82072 -0.89025,-2.00812 -1.61863,-4.28062 -1.61863,-5.05 0,-0.76938 -0.52267,-1.92154 -1.16149,-2.56036 -0.67526,-0.67526 -1.19854,-4.57361 -1.25,-9.3123 l -0.0885,-8.1508 4.5,-4.00279 c 2.475,-2.20154 5.4,-4.42033 6.5,-4.93065 6.93459,-3.21713 13.5,-10.19017 13.5,-14.33817 0,-2.36345 2.71188,-2.9226 5.45557,-1.12487 1.49668,0.98066 2.67644,1.2165 3.0513,0.60995 0.33613,-0.54388 1.41786,-0.98888 2.40382,-0.98888 1.73563,0 8.05452,-5.25745 8.12323,-6.7587 0.0187,-0.40771 0.90339,-2.5413 1.96607,-4.7413 1.06268,-2.2 1.94741,-4.7875 1.96607,-5.75 0.0187,-0.9625 0.48393,-1.75 1.03393,-1.75 0.59259,0 1,-3.66667 1,-9 0,-10.07012 1.48074,-12.00417 2.5624,-3.34684 2.48563,19.8943 -2.00634,44.87804 -10.75667,59.82717 -1.81815,3.10615 -3.78897,6.50221 -4.3796,7.54681 -2.55534,4.51943 -12.23513,15.85191 -17.27364,20.22286 -5.1857,4.49864 -7.01338,5.25431 -9.89373,4.09064 z m -95.289868,-13.87273 c -3.606948,-3.72143 -4.968592,-11.30134 -2.196167,-12.22549 0.675,-0.225 1.227273,-1.07314 1.227273,-1.88477 0,-0.81163 0.45,-1.19757 1,-0.85765 0.55,0.33992 1.003075,2.50398 1.006833,4.80902 0.0059,3.62831 0.455762,4.49662 3.350631,6.46753 1.839089,1.25211 4.389456,3.38961 5.667481,4.75 l 2.323683,2.47345 h -4.478147 c -3.812808,0 -4.986784,-0.52478 -7.901587,-3.53209 z m -39.468894,-69.15185 c -1.1,-0.24856 -3.418008,-1.09636 -5.151129,-1.884 -1.733121,-0.78763 -3.420621,-1.43206 -3.75,-1.43206 -7.9334494,0 -11.3241737,-17.75901 -5.9188236,-31 31.4231666,-76.97445 146.1809746,-80.12167 182.3162446,-5 1.19053,2.475 2.54762,5.2321 3.01575,6.12689 0.46813,0.89479 1.13947,3.16383 1.49188,5.04231 0.68375,3.64471 1.11455,3.21252 -6.94687,6.96925 -1.49407,0.69625 -5.2629,0.93668 -9.70304,0.61899 l -7.26009,-0.51945 -4.54696,-5.13883 c -5.48463,-6.19855 -11.04696,-6.18365 -11.04696,0.0296 0,0.80919 -0.48795,1.95921 -1.08434,2.5556 -0.59639,0.59639 -1.33505,3.84917 -1.64147,7.22841 -0.30641,3.37924 -0.94346,6.38285 -1.41566,6.67468 -0.47219,0.29183 -0.85853,1.36163 -0.85853,2.37732 0,1.72351 -0.79877,1.80993 -11.97197,1.29514 -7.07884,-0.32614 -15.56708,-0.0603 -20.76811,0.65046 -6.58646,0.90009 -10.04765,0.92153 -13.77803,0.0854 -15.071622,-3.37831 -39.270184,-2.97966 -43.619679,0.7186 -5.208147,4.42834 -26.515695,7.05271 -37.362213,4.60175 z"
         id="path524" />
      <path
         style="fill:url(#radialGradient336);fill-opacity:1;stroke:none"
         d="m 89.18245,-205.52345 c -5.597057,-0.37151 -10.997057,-1.09978 -12,-1.61838 -1.002942,-0.5186 -3.623532,-1.26741 -5.823532,-1.66402 -2.2,-0.39661 -4.45,-1.06879 -5,-1.49374 -0.55,-0.42494 -2.192336,-1.05691 -3.649636,-1.40437 -3.77391,-0.89981 -16.181338,-8.03895 -24.105701,-13.87023 -18.219116,-13.40685 -32.2453877,-35.75817 -37.2425968,-59.34729 -2.9449973,-13.90174 -1.36277444,-39.25163 1.8522705,-29.67651 1.1875375,3.53675 4.8734646,8.25 6.4517905,8.25 0.5219408,0 1.4626348,0.61891 2.0904298,1.37536 0.627796,0.75645 3.270396,1.92447 5.872445,2.5956 2.602049,0.67114 6.080998,1.73973 7.730998,2.37464 1.65,0.63492 5.025,1.18436 7.5,1.22097 2.475,0.0366 7.0875,0.14912 10.25,0.25 l 5.75,0.18343 v 5.54284 c 0,5.21217 0.275939,5.83784 4.62541,10.48778 l 4.62541,4.94494 -2.854867,5.76222 c -2.543175,5.13311 -6.002845,10.86911 -7.395953,12.26222 -3.366234,3.36623 -4.727197,12 -1.891592,12 0.490376,0 0.891592,0.87344 0.891592,1.94098 0,1.06754 0.477757,2.23626 1.061683,2.59714 0.583926,0.36089 1.482851,1.62495 1.997612,2.80902 5.289642,12.16744 24.940705,18.88865 24.940705,8.53042 0,-2.70734 0.517954,-2.43007 5.794231,3.10179 3.036692,3.18379 5.920908,5.21368 7.998342,5.62916 1.786975,0.3574 3.491239,1.04169 3.787253,1.52065 0.777135,1.25743 4.592921,1.06985 7.713006,-0.37916 5.0992,-2.36814 3.21184,-9.75 -2.492832,-9.75 -1.54,0 -2.8,-0.41425 -2.8,-0.92054 0,-0.5063 -1.281878,-1.2021 -2.848618,-1.54621 -7.473745,-1.64151 -15.479406,-19.74035 -10.180373,-23.01533 0.534055,-0.33007 1.275454,-2.89513 1.647553,-5.70015 l 0.676543,-5.10003 9.602447,0.63596 c 5.281347,0.34977 14.62481,0.63828 20.76324,0.64113 l 11.1608,0.005 2.3392,4.75 c 2.17985,4.42641 2.31731,5.72495 2.01773,19.06141 -0.36595,16.29141 -0.0513,17.16686 6.19392,17.23094 3.32536,0.0341 4.60432,0.61717 6.58065,3 1.41532,1.70643 3.42479,2.95765 4.75,2.95765 1.2633,0 2.29691,0.34815 2.29691,0.77366 0,0.98561 -12.22119,7.22634 -14.1513,7.22634 -0.79678,0 -1.8762,0.40259 -2.3987,0.89464 -0.93081,0.87657 -6.48477,2.34994 -15.45,4.09864 -6.61729,1.29073 -17.15297,1.59613 -28.67647,0.83126 z m 68.10116,-20.58985 c -1.8724,-1.27928 -7.42469,-12.82241 -7.42469,-15.43582 0,-0.76938 -0.52267,-1.92154 -1.16149,-2.56036 -4.43513,-4.43513 0.2298,-23.23851 5.76525,-23.23851 0.67626,0 1.37957,-0.3375 1.56291,-0.75 0.46382,-1.04359 6.56311,-5.25 7.6125,-5.25 2.0091,0 8.22083,-8.73128 8.22083,-11.55529 0,-2.28615 1.90538,-2.6384 5.249,-0.97038 2.02661,1.01101 3.35239,1.2215 3.57059,0.56689 0.19089,-0.57267 1.25403,-1.04122 2.36253,-1.04122 2.42168,0 7.60176,-5.29071 8.43653,-8.61672 0.32899,-1.3108 0.99406,-2.38328 1.47794,-2.38328 0.48388,0 1.16761,-1.8 1.5194,-4 0.35179,-2.2 1.03211,-4 1.51182,-4 0.4797,0 0.87219,-4.05 0.87219,-9 0,-10.51755 1.52623,-11.93748 2.55052,-2.37288 3.40996,31.84173 -6.63438,60.4325 -29.20222,83.12288 -7.69758,7.73938 -10.32428,9.26063 -12.92361,7.48469 z M 62.1088,-239.7578 c -3.816737,-3.49778 -5.330224,-11.39674 -2.372583,-12.38262 0.617485,-0.20583 1.122701,-1.03829 1.122701,-1.84992 0,-0.81163 0.45,-1.19757 1,-0.85765 0.55,0.33992 1,2.51647 1,4.83678 0,3.96152 2.330384,7.66322 4.82434,7.66322 0.440813,0 2.09486,1.35 3.67566,3 l 2.874182,3 h -4.201776 c -3.386735,0 -4.92351,-0.66142 -7.922524,-3.40981 z m -39.703757,-69.32612 c -1.624631,-0.23994 -3.862258,-1.07252 -4.972506,-1.85016 -1.110247,-0.77765 -2.593504,-1.41391 -3.296125,-1.41391 -2.801073,0 -8.5615536,-8.13562 -9.7550544,-13.77722 -1.5143042,-7.15802 3.469041,-20.08933 13.7259724,-35.61759 5.528618,-8.36994 23.960109,-25.60519 27.382355,-25.60519 0.391463,0 1.422185,-0.60814 2.290492,-1.35143 21.922415,-18.76601 82.235073,-18.76601 104.157483,0 0.86831,0.74329 1.89903,1.35143 2.29049,1.35143 3.42225,0 21.85374,17.23525 27.38236,25.60519 6.6224,10.02584 11.88581,20.33182 12.85265,25.16601 0.58308,2.91538 0.6397,2.86493 -7.29719,6.50105 -6.06289,2.77757 -21.30705,-1.18336 -21.30705,-5.53627 0,-1.37043 -4.2695,-4.66463 -6.09501,-4.70271 -1.92551,-0.0402 -4.90499,3.05503 -4.90499,5.09547 0,0.80919 -0.48795,1.95921 -1.08434,2.5556 -0.59639,0.59639 -1.33505,3.84917 -1.64147,7.22841 -0.30641,3.37924 -0.94346,6.38285 -1.41566,6.67468 -0.47219,0.29183 -0.85853,1.35165 -0.85853,2.35515 0,1.69575 -0.89994,1.79065 -12.75,1.34442 -7.0125,-0.26407 -16.34637,-0.0168 -20.74194,0.54959 -6.09677,0.78553 -9.77237,0.71069 -15.5,-0.31557 -17.27224,-3.09482 -36.850613,-2.53732 -41.145849,1.17162 -5.272316,4.55266 -22.857159,6.7069 -37.316088,4.57143 z"
         id="path522" />
      <path
         style="fill:url(#radialGradient338);fill-opacity:1;stroke:none"
         d="m 82.358918,-206.3972 c -7.827125,-1.56323 -14.014545,-3.19291 -15,-3.95078 -0.55,-0.42299 -2.567415,-1.10483 -4.483145,-1.5152 -1.91573,-0.41037 -6.349222,-2.48734 -9.852204,-4.61547 -3.502982,-2.12814 -6.68551,-3.86934 -7.072284,-3.86934 -2.270415,0 -19.905207,-16.11295 -24.625083,-22.5 -1.625748,-2.2 -3.19386,-4.225 -3.484693,-4.5 -5.089844,-4.81275 -13.4679332,-24.5817 -16.4499747,-38.81538 -2.6938247,-12.85797 -1.72558237,-36.32192 1.1733578,-28.43462 0.3537623,0.9625 1.2396391,2.10986 1.9686152,2.54969 0.7289762,0.43983 1.3254112,1.25947 1.3254112,1.82143 0,1.18126 2.5035537,3.87888 3.5998308,3.87888 0.4084782,0 1.4531207,0.61566 2.3214277,1.36814 2.255792,1.95486 18.569375,6.91447 20.749742,6.30827 1.005949,-0.27968 4.978999,-0.20879 8.828999,0.15754 l 7,0.66605 0.583089,6.08913 c 0.526076,5.49375 0.990518,6.48453 4.75,10.13298 3.980467,3.86291 5.229279,6.27789 3.246366,6.27789 -0.506299,0 -1.217054,1.35 -1.579455,3 -0.362401,1.65 -1.020672,3 -1.462824,3 -0.442152,0 -1.076154,0.7875 -1.408894,1.75 -0.332739,0.9625 -1.505267,3.1 -2.605618,4.75 -1.100352,1.65 -2.310271,3.675 -2.68871,4.5 -0.378439,0.825 -1.148395,1.80718 -1.711012,2.18262 -1.430604,0.95467 -1.283277,8.09727 0.177058,8.58405 0.66,0.22 1.2,1.4324 1.2,2.69422 0,1.26182 0.675,2.85442 1.5,3.53911 0.825,0.68469 1.5,1.86479 1.5,2.62244 0,0.75766 0.464123,1.37756 1.031385,1.37756 0.567261,0 1.330165,0.7875 1.695341,1.75 3.024342,7.97131 20.990142,11.90644 22.255765,4.87478 l 0.517509,-2.87523 4.747196,5.07939 c 3.312775,3.54459 5.805608,5.27794 8.25,5.73651 1.926542,0.36142 3.502804,1.05705 3.502804,1.54584 0,0.48879 1.8,0.88871 4,0.88871 2.2,0 4,-0.45 4,-1 0,-0.55 0.675002,-1 1.500002,-1 1.0303,0 1.5,-1.03333 1.5,-3.3 0,-4.0361 -1.51795,-5.7 -5.200002,-5.7 -1.54,0 -2.8,-0.40122 -2.8,-0.89159 0,-0.49038 -1.166982,-1.18449 -2.593293,-1.54247 -3.206475,-0.80477 -9.406707,-6.6822 -9.406707,-8.91696 0,-0.90694 -0.45,-1.64898 -1,-1.64898 -0.555556,0 -1,-2.66667 -1,-6 0,-3.3 0.41762,-6 0.928044,-6 0.510424,0 1.23632,-2.46736 1.613102,-5.48303 l 0.68506,-5.48303 20.136896,0.56695 c 23.43818,0.6599 22.179,0.43856 23.08751,4.05833 0.38937,1.55141 1.23478,3.14848 1.87867,3.54905 0.83,0.51634 1.08599,4.98157 0.87958,15.34272 -0.36665,18.40504 -0.35683,18.43741 5.60853,18.49136 3.94159,0.0356 5.07081,0.51039 7.1357,3 1.41532,1.70643 3.42479,2.95765 4.75,2.95765 4.91737,0 -3.77877,5.89119 -11.20309,7.58952 -1.65,0.37744 -3.45,1.02225 -4,1.4329 -1.02407,0.76462 -7.49534,2.42781 -15.5,3.98369 -5.52934,1.07474 -29.030435,1.03706 -34.500002,-0.0553 z m 74.154992,-20.77953 c -0.91025,-1.00581 -1.65499,-2.35581 -1.65499,-3 0,-0.64419 -0.45,-1.17126 -1,-1.17126 -0.55,0 -1.01431,-1.0125 -1.0318,-2.25 -0.0175,-1.2375 -0.6925,-3.12351 -1.5,-4.19113 -0.80751,-1.06762 -1.4682,-2.89012 -1.4682,-4.05 0,-1.15988 -0.52774,-2.63661 -1.17276,-3.28163 -4.12804,-4.12804 0.53262,-22.22724 5.72365,-22.22724 0.79701,0 1.44911,-0.44143 1.44911,-0.98095 0,-0.53952 1.09244,-1.25513 2.42764,-1.59025 1.33521,-0.33511 2.67108,-1.24368 2.96862,-2.01905 0.29753,-0.77536 1.25168,-1.40975 2.12032,-1.40975 1.78068,0 6.40344,-4.83641 6.45182,-6.75 0.0174,-0.6875 0.45171,-1.25 0.96518,-1.25 0.51347,0 1.07597,-1.2375 1.25,-2.75 0.31826,-2.76599 4.78736,-3.73146 5.64975,-1.22053 0.44,1.28108 3.16667,1.25571 3.16667,-0.0295 0,-0.55 1.04081,-1 2.31291,-1 2.81487,0 7.29611,-4.49531 8.22417,-8.25 0.37386,-1.5125 1.06056,-2.75 1.52601,-2.75 0.46546,0 1.14269,-1.57997 1.50496,-3.51105 0.36227,-1.93107 1.05766,-3.75763 1.54531,-4.05901 0.48765,-0.30136 0.88664,-4.66139 0.88664,-9.68893 0,-14.29359 2.19229,-9.71718 2.79107,5.82638 0.84952,22.05218 -7.82138,52.02217 -17.77366,61.43264 -0.29083,0.275 -1.85895,2.3 -3.48469,4.5 -9.18091,12.42381 -18.66715,19.21891 -21.87773,15.67126 z m -93.926262,-12.64624 c -4.600243,-4.4677 -5.232932,-6.66024 -3.173972,-10.99917 2.235618,-4.71122 3.445242,-4.44722 3.445242,0.75191 0,3.99754 2.309989,7.72224 4.78919,7.72224 0.767082,0 3.180894,2.52454 4.583075,4.79332 1.903502,3.07993 -6.067046,1.20514 -9.643535,-2.2683 z m -40.47873,-69.20136 c -1.7875,-0.24771 -3.25,-0.82308 -3.25,-1.27861 0,-0.45553 -1.2375,-1.13411 -2.75,-1.50796 -3.130691,-0.77383 -8.2499995,-5.2566 -8.2499995,-7.22418 0,-0.7221 -0.4326552,-1.31291 -0.9614559,-1.31291 -4.8927944,0 -2.8225681,-16.18331 3.6458204,-28.5 38.259967,-72.85217 143.972187,-71.96785 179.311927,1.5 1.19053,2.475 2.52118,5.18977 2.957,6.03282 1.91071,3.69609 2.24638,7.96718 0.62617,7.96718 -0.86871,0 -1.57946,0.45 -1.57946,1 0,0.55 -0.87344,1 -1.94098,1 -1.06754,0 -2.2191,0.45 -2.55902,1 -2.26557,3.66577 -21.5,-0.99595 -21.5,-5.21081 0,-1.73979 -3.59802,-4.78919 -5.65081,-4.78919 -2.7206,0 -5.34919,2.4921 -5.34919,5.07143 0,1.06071 -0.41762,1.92857 -0.92804,1.92857 -0.51043,0 -1.20747,2.5875 -1.54899,5.75 -0.34152,3.1625 -1.0489,6.53139 -1.57196,7.48643 -0.52305,0.95504 -0.95101,2.59014 -0.95101,3.63356 0,1.78775 -0.73512,1.87055 -12.75,1.4361 -7.0125,-0.25357 -16.34982,-0.0498 -20.7496,0.45271 -5.66134,0.64665 -9.89964,0.55383 -14.5,-0.31756 -19.570593,-3.70701 -36.140238,-2.64754 -46.000345,2.94127 -5.543793,3.14228 -21.969401,4.57369 -33.750057,2.94115 z"
         id="path520" />
      <path
         style="fill:url(#radialGradient340);fill-opacity:1;stroke:none"
         d="m 84.858918,-205.93766 c -8.458392,-1.49833 -23.453142,-6.35987 -29.077638,-9.42743 -2.982299,-1.62653 -6.547362,-3.52033 -7.922362,-4.20845 -1.375,-0.68812 -3.012637,-1.70637 -3.639192,-2.26279 -0.626556,-0.55641 -2.397736,-1.91166 -3.935957,-3.01166 -8.373453,-5.98796 -15.653242,-13.37718 -21.181584,-21.5 -2.058797,-3.025 -4.019167,-5.725 -4.356378,-6 -8.5251416,-6.95236 -20.4347208,-63 -13.3868885,-63 0.825,0 1.5,0.675 1.5,1.5 0,0.825 0.4641232,1.5 1.0313848,1.5 0.5672616,0 1.3295824,0.7875 1.6940461,1.75 0.7665042,2.02424 2.7955637,4.25 3.8743999,4.25 0.4084782,0 1.4531207,0.60988 2.3214277,1.35528 0.868308,0.7454 4.053741,2.15211 7.078741,3.12601 3.025,0.97391 6.533674,2.16403 7.797053,2.64472 1.263379,0.4807 6.550879,0.87399 11.75,0.87399 h 9.452947 v 4.38569 c 0,5.31141 1.427072,8.25353 6.297594,12.98345 3.600915,3.49697 4.655141,5.63086 2.781861,5.63086 -0.506299,0 -1.217054,1.35 -1.579455,3 -0.362401,1.65 -1.020672,3 -1.462824,3 -0.442152,0 -1.076154,0.7875 -1.408894,1.75 -0.332739,0.9625 -1.505267,3.1 -2.605618,4.75 -1.100352,1.65 -2.310271,3.675 -2.68871,4.5 -0.378439,0.825 -1.148395,1.80718 -1.711012,2.18262 -1.430604,0.95467 -1.283277,8.09727 0.177058,8.58405 0.66,0.22 1.2,1.4324 1.2,2.69422 0,1.26182 0.675,2.85442 1.5,3.53911 0.825,0.68469 1.5,1.87891 1.5,2.65383 0,0.77492 0.675,1.66796 1.5,1.98454 0.825,0.31659 1.5,0.97404 1.5,1.46101 0,3.864 8.461855,8.90062 14.953638,8.90062 5.249885,0 7.036645,-1.25135 7.067934,-4.95 0.02011,-2.37745 0.368932,-2.18879 5.15487,2.788 3.583542,3.72645 6.143201,5.50189 8.478428,5.88084 1.839822,0.29857 3.34513,0.93397 3.34513,1.412 0,0.47804 1.8,0.86916 4,0.86916 2.2,0 4,-0.45 4,-1 0,-0.55 0.675002,-1 1.500002,-1 1.0303,0 1.5,-1.03333 1.5,-3.3 0,-4.0361 -1.51795,-5.7 -5.200002,-5.7 -1.54,0 -2.8,-0.40122 -2.8,-0.89159 0,-0.49038 -1.146521,-1.17935 -2.547825,-1.53106 -2.927983,-0.73487 -9.452175,-7.05961 -9.452175,-9.1632 0,-0.77778 -0.45,-1.41415 -1,-1.41415 -0.555556,0 -1,-2.66667 -1,-6 0,-3.3 0.41762,-6 0.928044,-6 0.510424,0 1.237274,-2.475 1.615223,-5.5 l 0.68718,-5.5 h 6.325759 c 3.479168,0 6.603875,0.45 6.943794,1 0.363615,0.58834 6.287392,1 14.390042,1 h 13.772 l 1.41739,2.75 c 0.77956,1.5125 1.8681,3.07156 2.41898,3.46457 0.59853,0.42702 1.00159,7.26806 1.00159,17 v 16.28543 l 4.89345,0.31065 c 3.94915,0.2507 5.39117,0.87786 7.47268,3.25 1.41858,1.61664 3.37903,2.93935 4.35655,2.93935 5.6279,0 -5.45467,6.20965 -16.72268,9.36985 -3.3,0.92551 -7.35,2.16517 -9,2.7548 -3.03641,1.08507 -31.894208,2.10156 -36.500002,1.28568 z m 71.654992,-21.23907 c -0.91025,-1.00581 -1.65499,-2.35581 -1.65499,-3 0,-0.64419 -0.45,-1.17126 -1,-1.17126 -0.55,0 -1,-1.02487 -1,-2.27749 0,-1.25263 -0.63296,-3.18118 -1.40659,-4.28568 -0.77362,-1.1045 -1.72555,-4.13517 -2.11539,-6.73481 -0.38984,-2.59964 -1.10687,-4.97264 -1.59341,-5.27333 -2.91611,-1.80226 1.26918,-14.44924 5.57316,-16.84082 1.07677,-0.59833 2.57141,-1.65037 3.32143,-2.33787 0.75001,-0.6875 2.00651,-1.25 2.79223,-1.25 0.78571,0 1.42857,-0.41968 1.42857,-0.93261 0,-0.51294 0.96557,-1.23907 2.14571,-1.61364 2.45475,-0.7791 6.7756,-5.34129 6.82269,-7.20375 0.0174,-0.6875 0.4816,-1.25 1.0316,-1.25 0.55,0 1,-1.0875 1,-2.41667 0,-1.32916 0.5625,-2.60592 1.25,-2.83724 1.7209,-0.57902 4.75,0.29498 4.75,1.37054 0,0.48585 0.675,0.88337 1.5,0.88337 0.825,0 1.5,-0.45 1.5,-1 0,-0.55 1.04081,-1 2.31291,-1 2.81487,0 7.29611,-4.49531 8.22417,-8.25 0.37386,-1.5125 1.06056,-2.75 1.52601,-2.75 0.46546,0 1.14269,-1.57997 1.50496,-3.51105 0.36227,-1.93107 1.05766,-3.75763 1.54531,-4.05901 0.48765,-0.30139 0.91516,-4.68392 0.95003,-9.73896 0.0884,-12.81495 2.01111,-8.03768 2.69785,6.70318 0.8267,17.74472 -7.64183,49.89211 -14.64813,55.60584 -0.33721,0.275 -2.28837,2.975 -4.33592,6 -9.55083,14.11022 -20.69035,22.96341 -24.1222,19.17126 z m -94.201591,-12.91364 c -4.340265,-4.21521 -5.033024,-8.1643 -2.153401,-12.27554 l 1.7,-2.42709 v 4.04217 c 0,3.64212 3.147447,8.40284 5.555355,8.40284 0.575513,0 5.444645,5.04922 5.444645,5.64602 0,2.13476 -7.261895,-0.19833 -10.546599,-3.3884 z m -40.203401,-68.92574 c -1.7875,-0.25223 -3.25,-0.8313 -3.25,-1.28683 0,-0.45553 -1.2375,-1.13411 -2.75,-1.50796 -3.130691,-0.77383 -8.2499995,-5.2566 -8.2499995,-7.22418 0,-0.7221 -0.3787706,-1.31291 -0.8417124,-1.31291 -4.9017798,0 -2.8114532,-16.68329 3.5708959,-28.5 38.04063,-70.43096 134.028808,-72.88653 175.904618,-4.5 6.30118,10.29033 9.63461,20 6.8662,20 -0.825,0 -1.5,0.39145 -1.5,0.8699 0,1.45064 -11.76461,3.28794 -16.50324,2.57734 -4.05479,-0.60805 -9.49676,-3.91602 -9.49676,-5.77272 0,-5.95516 -9.5102,-6.37352 -10.69084,-0.4703 -0.30754,1.53768 -0.95291,2.79578 -1.43416,2.79578 -0.48125,0 -0.875,0.90611 -0.875,2.01357 0,1.10746 -0.42796,2.79496 -0.95101,3.75 -0.52306,0.95504 -1.23044,4.32393 -1.57196,7.48643 -0.61584,5.70273 -4.67871,8.46876 -6.97703,4.75 -0.84611,-1.36904 -21.79805,-1.30195 -23.17421,0.0742 -1.27507,1.27507 -13.83848,0.81152 -29.824868,-1.10045 -12.137262,-1.45163 -28.44606,-0.19246 -31.44681,2.42794 -5.252709,4.58691 -22.686426,6.92228 -36.804114,4.93018 z"
         id="path518" />
      <path
         style="fill:url(#radialGradient342);fill-opacity:1;stroke:none"
         d="m 84.358918,-206.39925 c -38.412668,-7.69142 -71.925626,-35.88819 -79.0513347,-66.51135 -0.3759254,-1.61557 -1.2646527,-4.96239 -1.9749495,-7.43739 -3.57699421,-12.46389 -4.6347418,-33.78991 -1.7237153,-34.75308 0.6875,-0.22747 1.25,0.29891 1.25,1.16975 0,0.87083 0.4611379,1.58333 1.0247508,1.58333 0.563613,0 1.428364,1.06158 1.9216689,2.35907 1.0712304,2.81755 7.8129408,6.95475 14.0535798,8.62429 2.475,0.66212 5.281394,1.61174 6.236431,2.11025 0.955037,0.49852 6.242537,0.90639 11.75,0.90639 h 10.013569 v 4.34636 c 0,5.27815 1.790825,9.08933 6.345153,13.50356 3.246859,3.14698 3.362446,3.48422 2.053827,5.99236 -0.762662,1.46175 -1.389431,3.22022 -1.392819,3.90772 -0.0034,0.6875 -0.403677,1.25 -0.88953,1.25 -0.485852,0 -1.168044,0.7875 -1.515981,1.75 -0.74162,2.05155 -2.283426,4.64239 -5.219454,8.77074 -3.917121,5.50788 -3.757427,9.22285 0.708388,16.47926 0.50773,0.825 1.214887,2.175 1.571461,3 5.058917,11.70476 25.338955,18.74784 25.338955,8.8 0,-2.71514 1.078011,-2.20386 5.917517,2.80657 2.942256,3.04617 5.530423,4.75414 7.75,5.11433 1.832866,0.29743 3.332483,0.93191 3.332483,1.40994 0,1.366 7.305734,0.95302 9.250002,-0.52289 3.38583,-2.57021 1.70376,-9.60795 -2.296364,-9.60795 -4.27246,0 -15.953638,-8.56884 -15.953638,-11.70295 0,-0.71338 -0.45,-1.29705 -1,-1.29705 -1.152132,0 -1.377874,-10.29598 -0.25,-11.40239 0.4125,-0.40465 1.211891,-3.06715 1.776426,-5.91667 l 1.026425,-5.18094 6.473575,0.28143 c 3.560465,0.15478 12.822026,0.51468 20.581236,0.79978 14.09998,0.51808 14.10843,0.51983 15.49841,3.21857 0.76491,1.48512 1.84146,3.02178 2.39234,3.41479 0.59853,0.42702 1.00159,7.26806 1.00159,17 v 16.28543 l 4.60992,0.29907 c 3.57215,0.23174 5.24637,0.96338 7.43709,3.25 1.55495,1.62301 3.64298,2.95093 4.64008,2.95093 3.5423,0 1.72043,1.74538 -4.93709,4.72982 -9.91345,4.44402 -14.07298,5.70703 -27.25,8.27424 -5.51542,1.07455 -25.034022,1.03914 -30.500002,-0.0553 z m 72.361862,-20.69874 c -2.29736,-2.77628 -6.28442,-12.47149 -7.91638,-19.25 -0.59587,-2.475 -1.33603,-5.54497 -1.64481,-6.82215 -0.30877,-1.27718 -0.11295,-3.30218 0.43517,-4.5 3.07121,-6.71165 3.9195,-7.97733 6.2288,-9.29357 1.39445,-0.79481 3.88536,-2.33666 5.53536,-3.42634 1.65,-1.08968 3.675,-2.23212 4.5,-2.53874 1.96575,-0.73059 8,-8.70114 8,-10.56706 0,-2.99878 2.14987,-3.87668 5.15146,-2.1036 2.21301,1.30726 3.09231,1.40769 4.03873,0.46127 0.66539,-0.66539 1.93562,-1.20981 2.82272,-1.20981 3.13418,0 10.98709,-11.65062 10.98709,-16.30051 0,-0.8698 0.45,-1.85957 1,-2.19949 0.55,-0.33992 1.04024,-4.52898 1.08942,-9.30902 l 0.0894,-8.69098 1.3913,5 c 0.76521,2.75 1.39997,8.67817 1.41058,13.17371 0.0211,8.93634 -0.69028,13.24118 -5.07085,30.68588 -4.99553,19.89372 -32.41999,53.69166 -38.048,46.89041 z m -94.824117,-13.82488 c -4.476929,-4.85689 -4.760608,-7.1273 -1.476388,-11.81618 1.354311,-1.93355 1.437846,-1.82109 1.425046,1.91855 -0.01224,3.57467 0.563618,4.49439 5.75,9.18353 l 5.763597,5.21101 -3.62264,0.039 c -3.044499,0.0328 -4.295632,-0.69113 -7.839615,-4.5359 z m -39.787745,-68.08582 c -1.7875,-0.25631 -3.25,-0.83872 -3.25,-1.29425 0,-0.45553 -1.192428,-1.12751 -2.649841,-1.4933 -3.017609,-0.75737 -8.3501585,-5.41832 -8.3501585,-7.2985 0,-0.68929 -0.3965783,-1.25325 -0.881285,-1.25325 -1.862031,0 -3.223731,-8.89839 -2.0347605,-13.29669 2.0052066,-7.41775 8.687559,-21.67824 10.166045,-21.69487 0.4125,-0.005 0.75,-0.48986 0.75,-1.07826 0,-3.6009 17.30288,-22.51572 25.347206,-27.70857 11.381277,-7.34694 16.222254,-9.89284 23.304422,-12.25595 3.766605,-1.25681 7.748372,-2.63518 8.848372,-3.06306 12.375895,-4.81397 40.624102,-4.81397 53.000002,0 1.1,0.42788 5.08177,1.80625 8.84837,3.06306 7.08217,2.36311 11.92315,4.90901 23.30442,12.25595 8.04433,5.19285 25.34721,24.10767 25.34721,27.70857 0,0.5884 0.3375,1.07362 0.75,1.07826 0.4125,0.005 2.27924,3.04214 4.14831,6.75 5.74347,11.39391 6.9432,15.24156 4.75241,15.24156 -0.81623,0 -1.63405,0.42587 -1.81739,0.94637 -1.80551,5.12606 -25.83333,1.87598 -25.83333,-3.4943 0,-1.63585 -4.38015,-5.45207 -6.25775,-5.45207 -1.9255,0 -4.74225,3.69597 -4.74225,6.22251 0,0.97762 -0.35176,1.77749 -0.78168,1.77749 -0.8838,0 -2.62305,6.05722 -3.87636,13.5 -0.87266,5.18234 -3.94429,7.29767 -6.6573,4.58467 -1.38582,-1.38583 -22.33322,-1.46233 -23.18466,-0.0847 -0.78709,1.27354 -14.73264,1.26011 -20,-0.0193 -11.914723,-2.89391 -37.668504,-1.9482 -41.505391,1.52414 -4.624485,4.1851 -23.73659,6.69965 -36.744611,4.83442 z"
         id="path516" />
      <path
         style="fill:url(#radialGradient344);fill-opacity:1;stroke:none"
         d="m 85.358918,-206.40511 c -15.082802,-3.04215 -21.376935,-5.02232 -28.729701,-9.03856 -2.898665,-1.58331 -6.395299,-3.43283 -7.770299,-4.11004 -11.848487,-5.83558 -27.232779,-21.51636 -35.655544,-36.34269 -9.1256257,-16.06356 -15.3468742,-42.96424 -12.92357327,-55.88155 0.64605606,-3.44377 2.57911777,-5.05445 2.57911777,-2.14899 0,3.05383 8.5313375,10.0344 14.5866345,11.93517 3.252351,1.02092 6.947039,2.25842 8.210418,2.75 1.263379,0.49158 6.775879,0.89378 12.25,0.89378 h 9.952947 v 5.43025 c 0,5.09978 0.294201,5.7502 4.83424,10.6877 l 4.83424,5.25745 -2.623475,5.0623 c -1.442911,2.78427 -4.514043,7.9873 -6.824739,11.5623 -5.293613,8.19003 -5.296576,8.93245 -0.07184,18 0.475366,0.825 1.172325,2.175 1.548797,3 5.718589,12.5317 23.515766,18.58859 25.445168,8.65972 0.295422,-1.52027 1.167265,-1.04098 5.013615,2.7562 2.676162,2.64195 5.980494,4.86138 7.770809,5.21944 1.713142,0.34263 3.356996,1.01484 3.65301,1.4938 0.841663,1.36184 7.719108,0.95966 9.736007,-0.56934 3.18084,-2.41139 1.95061,-8.92007 -1.815833,-9.60683 -12.204786,-2.22539 -23.713378,-18.28435 -17.559963,-24.50299 0.517021,-0.5225 1.313012,-3.2 1.768869,-5.95 l 0.828833,-5 5.373919,-0.30721 c 2.955656,-0.16897 5.849665,0.16853 6.431131,0.75 0.644375,0.64437 6.641314,1.05721 15.357214,1.05721 9.69876,0 14.3,0.35254 14.3,1.09563 0,0.6026 1.0125,2.5151 2.25,4.25 2.10089,2.94532 2.25,4.18159 2.25,18.65437 v 15.5 l 4.5,0.31168 c 3.26583,0.2262 5.32278,1.07788 7.5,3.10535 1.65,1.53652 3.89247,3.10992 4.98327,3.49645 1.63479,0.57929 0.93193,1.21247 -4,3.60341 -8.88711,4.30839 -14.7266,6.08724 -29.48327,8.98134 -5.50839,1.08031 -23.038237,1.04627 -28.500002,-0.0554 z m 72.472032,-20.28388 c -1.98381,-1.5333 -4.97044,-6.25713 -4.97819,-7.87382 -0.003,-0.70685 -0.69967,-2.61514 -1.54729,-4.24064 -0.84763,-1.62551 -1.8077,-4.90029 -2.13351,-7.2773 -0.3258,-2.37702 -0.97952,-4.56111 -1.45271,-4.85356 -1.19256,-0.73705 -1.08305,-6.158 0.13967,-6.91368 0.55,-0.33992 1,-1.45641 1,-2.48109 0,-1.86307 6.7281,-8.37191 10.5,-10.15783 7.36868,-3.48892 12.5,-9.03352 12.5,-13.50677 0,-2.12857 2.82028,-2.78845 5.58767,-1.30739 1.88435,1.00847 2.72614,1.03927 3.63254,0.13287 0.64888,-0.64888 2.05069,-1.17979 3.11512,-1.17979 2.25925,0 6.19748,-3.93606 7.22175,-7.21777 0.39178,-1.25523 1.3267,-3.16986 2.07762,-4.25474 0.75091,-1.08487 1.3653,-2.99737 1.3653,-4.25 0,-1.25262 0.45,-2.27749 1,-2.27749 0.58886,0 1.03269,-3.803 1.0795,-9.25 l 0.0795,-9.25 1.47095,6.5 c 3.62215,16.00591 -1.54539,42.09372 -11.97441,60.45159 -9.02436,15.8853 -24.9451,32.09683 -28.68351,29.20741 z m -95.435751,-13.62184 c -3.882527,-3.97607 -5.278111,-9.29599 -2.852892,-10.87514 0.559198,-0.36411 1.273671,-1.33702 1.58772,-2.16202 0.314048,-0.825 0.606523,0.6008 0.649944,3.16844 0.07027,4.15554 0.437888,4.89028 3.346005,6.68759 1.796882,1.11054 4.350323,3.17224 5.674314,4.58156 l 2.407256,2.56241 H 69.73618 c -2.726854,0 -4.301293,-0.84992 -7.340981,-3.96284 z m -38.536281,-68.6632 c -1.375,-0.26951 -3.918008,-1.13891 -5.651129,-1.93199 -1.733121,-0.79308 -3.400167,-1.44197 -3.704546,-1.44197 -2.038086,0 -8.4131329,-8.70709 -9.7255555,-13.28324 -3.115878,-10.86443 13.3641485,-39.16298 31.6344415,-54.32084 46.072453,-38.22378 117.155811,-26.65994 148.168631,24.10408 3.00446,4.91791 6.67391,12.40222 8.30726,16.94372 l 1.77801,4.94372 -2.52906,1.31209 c -9.26438,4.80642 -20.11867,3.30714 -26.25391,-3.62639 -5.34472,-6.04016 -11.02414,-6.15908 -11.02414,-0.23083 0,0.65166 -0.45,2.07872 -1,3.17126 -0.55,1.09254 -1.45,2.88032 -2,3.97286 -0.55,1.09254 -1,3.28629 -1,4.875 0,8.12263 -2.33001,11.66259 -6.1189,9.29639 -2.43852,-1.52288 -24.07261,-1.56631 -25.58756,-0.0514 -1.29701,1.29701 -13.91748,0.7439 -25.293542,-1.10854 -9.685929,-1.57722 -28.785385,-0.76811 -32.68567,1.38466 -9.760716,5.38745 -11.359211,5.81142 -23.184114,6.14919 -6.396619,0.18271 -12.755216,0.1117 -14.130216,-0.15781 z"
         id="path514" />
      <path
         style="fill:url(#radialGradient346);fill-opacity:1;stroke:none"
         d="m 84.358918,-206.95206 c -36.608607,-6.51907 -60.335063,-25.62856 -77.5580907,-62.46594 -3.9116106,-8.36633 -7.8737215,-34.98697 -6.272879,-42.14625 l 0.8309702,-3.71625 3.5,4.91941 c 1.925,2.70568 3.9145667,4.9405 4.4212593,4.96626 0.5066927,0.0258 1.6316922,0.66653 2.4999992,1.42392 2.933326,2.55864 14.401063,4.99106 25.328741,5.37247 l 10.75,0.37522 v 5.48045 c 0,5.11597 0.299281,5.80042 4.5,10.29133 2.475,2.64597 4.5,5.2236 4.5,5.72806 0,0.95975 -8.858476,16.50654 -9.9004,17.37539 -2.368093,1.97473 -3.813215,7.72814 -2.525261,10.05373 0.745135,1.34545 1.370736,3.05601 1.390226,3.80125 0.01949,0.74523 1.385435,3.35529 3.035435,5.80013 1.65,2.44483 3,4.63941 3,4.87683 0,6.53292 19.694741,11.669 23.058025,6.01317 l 1.558025,-2.62004 3.898937,3.78747 c 6.619921,6.43065 14.375217,8.81822 20.458525,6.29843 5.43187,-2.24995 3.22672,-11.01097 -2.771459,-11.01097 -11.094337,0 -21.784148,-20.8223 -14.452053,-28.15064 0.6875,-0.68715 1.25,-2.35174 1.25,-3.6991 v -2.44975 l 9.153625,0.64975 c 5.034493,0.35736 14.146997,0.66135 20.249997,0.67554 l 11.09638,0.0258 1.81753,4.2242 c 0.99964,2.32331 2.23714,5.00559 2.75,5.96063 1.23811,2.3056 1.19307,8.48448 -0.0675,9.26357 -5.38411,3.32756 0.0301,21.5 6.40566,21.5 2.83132,0 4.48204,0.73385 6.74819,3 1.65,1.65 3.52788,3.01797 4.17307,3.03994 2.1949,0.0747 -9.92301,5.6687 -16.8888,7.79634 -16.39402,5.00741 -31.315192,6.16362 -45.938122,3.55965 z m 72.072932,-20.96586 c -0.86346,-0.86346 -1.86509,-2.74596 -2.22585,-4.18335 -0.36076,-1.43738 -1.25867,-3.76841 -1.99534,-5.18007 -0.73668,-1.41166 -1.34219,-3.26415 -1.34558,-4.11665 -0.003,-0.8525 -0.52883,-2.07267 -1.16765,-2.71149 -4.1652,-4.1652 -0.23513,-22.23851 4.8358,-22.23851 0.72913,0 1.32569,-0.37007 1.32569,-0.82237 0,-0.8286 7.61152,-6.16277 8.83974,-6.19491 1.82083,-0.0476 8.16026,-8.94085 8.16026,-11.44754 0,-1.79146 1.34864,-1.95415 4.08031,-0.4922 4.67835,2.50378 11.7864,-1.95802 15.36791,-9.64661 0.99825,-2.143 2.65578,-5.66839 3.68339,-7.8342 1.02762,-2.16581 1.91359,-5.99081 1.96884,-8.5 l 0.10045,-4.56217 0.98052,4 c 1.76932,7.21788 -2.0573,33.73338 -6.12333,42.42999 -7.93072,16.96257 -14.20865,26.40952 -23.55269,35.44176 -8.28512,8.00866 -10.12175,8.86904 -12.93247,6.05832 z m -92.74844,-11.44736 c -4.966527,-4.74628 -5.785953,-6.94064 -3.914496,-10.48271 l 1.585052,-3 0.331382,3.45846 c 0.303653,3.16907 3.981607,8.04154 6.070104,8.04154 0.929114,0 4.103466,3.34862 4.103466,4.32874 0,1.8685 -5.381266,0.3243 -8.175508,-2.34603 z m -40.324492,-70.14154 c -11.04297,-4.02681 -13.4232955,-5.71388 -16.5643137,-11.74006 -7.366533,-14.133 9.2586337,-42.9329 37.1914427,-64.42702 28.221153,-21.71599 83.524593,-21.71599 111.745743,0 25.31223,19.47759 46.77543,53.19433 33.93615,53.3106 -0.93004,0.008 -1.9691,0.46531 -2.30902,1.01531 -2.55023,4.12636 -17.38661,0.42441 -21.67942,-5.40941 -4.3651,-5.93207 -11.82058,-4.97093 -11.82058,1.52386 0,0.81705 -0.46196,1.94751 -1.02658,2.51213 -0.56461,0.56461 -1.28628,3.46711 -1.60371,6.45 -0.31743,2.98288 -1.06243,6.59791 -1.65556,8.03339 l -1.07841,2.60997 -11.33189,-0.50007 c -6.51077,-0.28732 -15.18808,0.0269 -20.39576,0.73856 -6.9404,0.94845 -10.50986,0.97081 -15.23598,0.0954 -16.73726,-3.10011 -38.031533,-2.51439 -42.520319,1.16955 -5.565465,4.56758 -27.86764,7.45625 -35.651793,4.61777 z"
         id="path512" />
    </g>
  </g>
</svg>
