<?xml version="1.0" encoding="UTF-8" standalone="no"?>
<!-- Created with Inkscape (http://www.inkscape.org/) -->

<svg
   width="327.41049mm"
   height="206.27031mm"
   viewBox="0 0 327.4105 206.27031"
   version="1.1"
   id="svg8"
   inkscape:version="1.2.1 (9c6d41e410, 2022-07-14)"
   sodipodi:docname="logo.svg"
   xmlns:inkscape="http://www.inkscape.org/namespaces/inkscape"
   xmlns:sodipodi="http://sodipodi.sourceforge.net/DTD/sodipodi-0.dtd"
   xmlns="http://www.w3.org/2000/svg"
   xmlns:svg="http://www.w3.org/2000/svg"
   xmlns:rdf="http://www.w3.org/1999/02/22-rdf-syntax-ns#"
   xmlns:cc="http://creativecommons.org/ns#"
   xmlns:dc="http://purl.org/dc/elements/1.1/">
  <defs
     id="defs2">
    <inkscape:path-effect
       effect="bspline"
       id="path-effect4180"
       is_visible="true"
       lpeversion="1"
       weight="33.333333"
       steps="2"
       helper_size="0"
       apply_no_weight="true"
       apply_with_weight="true"
       only_selected="false" />
    <inkscape:path-effect
       effect="bspline"
       id="path-effect358"
       is_visible="true"
       lpeversion="1"
       weight="33.333333"
       steps="2"
       helper_size="0"
       apply_no_weight="true"
       apply_with_weight="true"
       only_selected="false" />
    <inkscape:path-effect
       effect="bspline"
       id="path-effect354"
       is_visible="true"
       lpeversion="1"
       weight="33.333333"
       steps="2"
       helper_size="0"
       apply_no_weight="true"
       apply_with_weight="true"
       only_selected="false" />
    <clipPath
       clipPathUnits="userSpaceOnUse"
       id="clipPath4250">
      <path
         id="path4252"
         style="fill:#ff0000;fill-opacity:1;fill-rule:nonzero;stroke:none;stroke-width:0.264583"
         d="M 57.715647,422.68992 V 446.505 c 0.03136,-0.0188 0.06324,-0.0364 0.09457,-0.0553 2.803687,-1.69169 5.341586,-3.80153 7.916312,-5.80895 1.475621,-1.16642 2.953684,-2.32918 4.426604,-3.49901 0.876988,-0.69652 1.725731,-1.43008 2.623095,-2.10013 4.137917,-3.08973 5.592035,-4.05413 9.636104,-6.56446 -1.648802,0.53475 -2.812468,0.93968 -4.484997,1.51619 -0.157988,0.0678 -2.538873,1.0341 -3.080433,1.40611 -0.948976,0.65193 -0.943912,0.84629 -1.661914,1.5534 -0.61713,0.60777 -0.681643,0.64178 -1.24075,1.08624 -2.061922,1.63911 -3.731522,-0.49112 -1.641242,-2.09393 0.430879,-0.3304 0.441875,-0.32611 0.95963,-0.83148 0.293235,-0.28621 0.548738,-0.6114 0.856795,-0.8816 0.485984,-0.42625 0.982713,-0.84458 1.520322,-1.20354 0.631354,-0.42156 3.13036,-1.42729 3.420462,-1.55081 1.530853,-0.52754 3.438848,-1.1948 4.951119,-1.66863 0.438793,-0.13749 0.878787,-0.27911 1.33015,-0.3669 0.787625,-0.15319 1.581121,-0.28793 2.380734,-0.3545 0.694513,-0.0578 1.392341,-0.0422 2.090828,-0.0109 0.657765,-0.38648 1.124659,-0.57364 2.900598,-1.35082 0.377052,-0.165 0.721058,-0.24485 1.024228,-0.25786 1.111801,-0.0477 1.670093,0.80137 1.27744,1.63039 3.70944,0.0333 7.432538,0.0251 11.127488,0.35088 0.6451,0.0569 1.28406,0.16819 1.92753,0.24133 1.09585,0.12455 2.19358,0.23466 3.29024,0.35192 2.26576,0.18351 4.13195,0.31025 6.42493,0.61546 0.53605,0.0713 1.0622,0.20177 1.59266,0.30696 2.04861,0.40626 4.08791,0.85172 6.13141,1.28209 0.25359,0.0411 0.51403,0.0517 0.76068,0.12351 1.38923,0.40464 2.65134,1.23454 3.78737,2.10736 0.0425,0.0327 0.0828,0.0681 0.1235,0.10284 0.12523,-0.11602 0.24985,-0.23349 0.37517,-0.34933 3.76035,-3.46434 3.72397,-3.4109 7.4595,-6.9324 0.21012,-0.19807 0.41287,-0.40452 0.61701,-0.60926 z m 83.092083,0 c -0.60117,0.86238 -0.99483,1.59068 -1.35909,2.45566 0.55484,-0.91823 1.03016,-1.62428 1.70481,-2.45566 z m 5.5454,0 c -0.13777,1.32963 -0.28484,2.90675 -0.52968,5.18676 -0.27682,3.17317 -0.63064,6.34037 -0.83044,9.51932 -0.079,1.25746 0.0561,6.08789 0.13694,7.63312 0.62146,0.10247 1.24425,0.19625 1.8681,0.28267 0.56071,0.0777 1.12293,0.16559 1.68879,0.18087 1.11857,0.0302 2.2375,-0.03 3.35638,-0.045 4.0808,-0.11016 8.10654,-0.7406 12.11192,-1.49138 0.34988,-0.21257 0.69785,-0.42779 1.04232,-0.64905 0.57745,-0.37092 1.08039,-0.84686 1.62057,-1.27021 1.20778,-1.05418 2.48919,-2.02641 3.47782,-3.30419 0.17106,-0.22108 0.34191,-0.44341 0.51108,-0.66715 -0.18884,-0.28591 -0.37868,-0.57147 -0.5674,-0.85731 -0.40232,-0.73103 -0.83996,-1.44333 -1.20716,-2.19263 -0.26009,-0.53077 -0.45187,-1.0926 -0.6718,-1.64124 -1.40956,-3.51626 -2.64536,-7.10963 -4.24728,-10.54458 -0.026,-0.0461 -0.0498,-0.0936 -0.0755,-0.14004 z m 20.61373,0 c 1.42721,3.17524 2.57215,6.47375 3.86746,9.70432 0.2162,0.53921 0.40417,1.09145 0.66043,1.61282 0.23457,0.47722 0.5047,0.93575 0.77308,1.39526 0.10409,-0.34848 0.19495,-0.70267 0.30282,-1.04851 0.78556,-2.51866 0.64098,-1.78477 0.86403,-3.47008 -0.0478,-0.52195 -0.002,-1.06112 -0.14366,-1.56579 -0.13401,-0.47785 -0.39618,-0.91557 -0.66818,-1.33067 -0.51459,-0.78532 -1.04378,-1.57067 -1.6831,-2.25826 -0.64361,-0.69219 -1.42335,-1.24463 -2.14354,-1.85673 -0.83413,-0.70897 -1.01635,-0.86024 -1.39629,-1.18236 z m 4.58783,0 c 0.39449,0.32313 0.78004,0.65556 1.12707,1.02784 0.76417,0.81984 1.42852,1.73163 2.05827,2.65876 0.36396,0.53583 0.71439,1.09845 0.9126,1.71514 0.25059,0.77969 0.27804,1.61445 0.41703,2.42155 -0.16718,2.39008 0.001,1.43649 -0.93844,4.56355 -0.22571,0.75121 -0.39096,1.53285 -0.74776,2.23139 -0.12593,0.24653 -0.26118,0.48819 -0.40204,0.72657 0.88637,1.32245 1.78366,2.63789 2.7249,3.92069 0.29109,-0.0324 0.5823,-0.065 0.87281,-0.10284 v -19.16265 z m -28.00501,1.25729 c -1.41432,1.67502 -1.85269,2.67164 -3.99924,6.24044 -2.20091,4.23132 -2.81693,4.83285 -3.43389,6.76186 -0.0237,0.18823 -0.0305,0.25049 -0.0579,0.46251 -0.20627,2.64671 -0.31346,3.59529 -0.35347,4.44779 0.0273,0.0638 0.0532,0.12821 0.0811,0.19172 0.22375,0.50825 0.45011,1.01442 0.68007,1.51877 0.31815,0.0485 0.35878,0.0673 0.89451,0.063 0.0378,-2.7e-4 -0.14995,-0.008 -0.11265,-0.0134 0.21189,-0.0337 0.42699,-0.0469 0.64027,-0.0703 0.91596,-0.10445 1.19126,0.0146 1.77922,0.1757 0.096,0.041 0.18735,0.0965 0.28835,0.12299 0.69451,0.18217 1.39625,0.33479 2.09445,0.50229 0.13364,0.0321 0.26669,0.0671 0.39998,0.10077 -0.0919,-2.16505 -0.19449,-5.82192 -0.11834,-7.05073 0.20174,-3.25718 0.56012,-6.50255 0.84026,-9.75393 0.16083,-1.49867 0.27487,-2.65871 0.37723,-3.69951 z m -7.6202,3.0794 c -1.71845,1.61069 -2.76571,2.57803 -5.56711,5.15885 -0.10441,0.0965 -0.20829,0.1943 -0.31264,0.29094 1.23317,1.43802 2.19051,3.09506 3.22668,4.6762 0.0781,-0.28248 0.15625,-0.55167 0.23513,-0.79737 0.46312,-3.76256 0.29792,-3.0672 2.22983,-8.77724 0.0676,-0.19973 0.12482,-0.36539 0.18811,-0.55138 z m -44.4345,0.71778 5.29e-4,5.3e-4 c -0.996429,0.12782 -2.001605,0.0792 -3.00705,0.0264 -0.676932,0.43147 -1.72257,1.12861 -4.130498,2.62723 -4.60117,2.86364 -5.638544,3.5214 -10.027296,6.80269 -0.860203,0.64314 -1.672704,1.34814 -2.513541,2.01641 -1.477182,1.17402 -2.96028,2.34025 -4.440555,3.51038 -2.633917,2.05707 -5.23671,4.20834 -8.103381,5.94434 -0.515048,0.3119 -1.034769,0.61159 -1.557528,0.90434 v 4.11861 c 0.311602,0.10117 0.556043,0.17958 1.007689,0.32815 0.772089,0.25398 1.56985,0.522 2.368849,0.79065 0.07318,-0.0874 0.103783,-0.12536 0.182933,-0.21963 0.923841,-1.0672 1.831089,-2.14963 2.771926,-3.20187 1.045858,-1.16971 3.409556,-3.41249 4.219379,-4.16564 0.590021,-0.54872 2.425894,-2.18975 4.168738,-3.7424 0.159409,-0.17958 0.316738,-0.36131 0.476975,-0.54002 0.359656,-0.40113 0.703347,-0.81728 1.08417,-1.19838 0.600467,-0.6009 1.238213,-1.16388 1.857251,-1.74563 1.274596,-1.16307 2.638253,-2.24087 4.158919,-3.06441 0.433639,-0.23485 0.73969,-0.32983 1.236618,-0.52555 0.36372,-0.14193 1.040918,-0.37328 1.569413,-0.38189 0.176165,-0.003 0.336044,0.0189 0.461986,0.077 0.405704,0.18708 0.767615,0.46408 1.111044,0.74982 0.169595,0.14111 0.343233,0.30813 0.411863,0.5178 0.429237,1.31132 0.7111,2.66656 1.066599,3.99976 0.232715,1.11744 0.50668,2.22701 0.698151,3.35225 0.456552,2.68309 0.722185,4.26618 0.910021,5.40483 0.266335,-0.23309 0.726951,-0.42579 1.044379,-0.59066 0.266277,-0.046 0.597702,-0.31835 0.79892,-0.13797 4.70199,4.21499 0.951569,0.91403 1.062982,2.12286 0.08065,0.87509 0.391795,0.11074 0.248047,1.35858 -0.01296,0.11252 -0.02864,0.22458 -0.04599,0.33641 0.540523,-0.75219 1.170591,-1.62212 2.084626,-2.86959 0.372674,-0.50862 0.77933,-0.99147 1.168921,-1.48725 0.508596,-0.64722 1.062625,-0.93148 1.534274,-0.95343 1.037627,-0.0483 1.677016,1.17337 0.558104,2.59726 -0.389591,0.49578 -0.796332,0.97908 -1.168918,1.48776 -2.936127,4.00862 -3.457224,4.82027 -5.182114,7.26829 0.09075,10e-6 0.181496,2e-5 0.272333,0 0.201496,7e-5 0.403127,2e-5 0.604615,0 0.12613,-1e-5 0.252143,0 0.378273,0 1.4703,10e-6 2.118799,0.8291 1.947685,1.56167 1.789753,-1.06064 1.925415,-1.13192 4.55631,-3.02359 0.619675,-0.44556 1.237234,-0.89583 1.823143,-1.38493 3.726576,-3.11078 1.485346,-1.39391 4.426086,-4.03696 1.49551,-1.34415 3.02142,-2.6545 4.53202,-3.98167 1.20093,-1.03317 2.40104,-2.06745 3.60288,-3.09956 0.93739,-0.80495 1.88122,-1.60274 2.8236,-2.40192 -1.09483,-0.48286 -2.1956,-0.95462 -3.22667,-1.55804 -0.78153,-0.45738 -1.40981,-1.13729 -2.09962,-1.72393 -0.85328,-0.72566 -1.71404,-1.44386 -2.52904,-2.21226 -0.27054,-0.25507 -0.49909,-0.55283 -0.72037,-0.85163 -1.08291,-1.4623 -0.95182,-1.34225 -1.68724,-2.81068 v -5.3e-4 c -1.17952,-2.3552 1.19914,-3.54634 2.37867,-1.19114 0.6928,1.38333 0.53689,1.22989 1.49552,2.48667 0.17045,0.22346 0.34668,0.44634 0.55397,0.63614 0.72962,0.66802 1.49423,1.29671 2.25154,1.93321 0.67491,0.56724 1.28179,1.2358 2.04484,1.67742 1.1944,0.69127 2.50912,1.14909 3.77082,1.70945 0.56006,-0.48231 1.11801,-0.96717 1.67174,-1.45675 2.63084,-2.32632 5.1995,-4.73153 7.77007,-7.12929 -0.002,-0.002 -0.004,-0.004 -0.007,-0.006 -0.36329,-0.27609 -0.75993,-0.50538 -1.14877,-0.74414 -0.52522,-0.3225 -1.21007,-0.801 -1.87275,-0.76481 -2.11709,-0.42742 -4.22406,-0.89629 -6.34277,-1.3162 -0.52258,-0.10357 -1.04124,-0.23253 -1.56941,-0.3023 -1.99644,-0.26372 -4.1214,-0.41363 -6.13606,-0.5762 -1.11936,-0.11939 -2.23939,-0.23124 -3.35793,-0.35811 -0.65935,-0.0748 -1.31458,-0.18868 -1.97559,-0.24702 -1.50505,-0.13285 -3.02223,-0.19027 -4.533057,-0.22169 -2.65662,-0.0552 -5.140132,-0.086 -7.784021,-0.12299 z m 36.6112,6.54069 c -2.62184,2.44466 -5.24088,4.89787 -7.92406,7.27035 -0.17031,0.15059 -0.34318,0.29826 -0.51418,0.44804 1.72325,0.52777 3.4898,0.91663 5.28908,1.02319 4.78488,0.28338 0.22522,-0.0726 3.61632,-0.0212 1.01258,0.0154 2.02366,0.0848 3.03547,0.12713 0.19355,0.0138 0.23798,0.017 0.40153,0.0284 0.10176,-0.72792 0.23943,-1.45122 0.38757,-2.17248 -0.482,-0.96707 -0.75612,-1.40171 -1.341,-2.37091 -0.98499,-1.431 -1.8165,-3.00559 -2.95073,-4.33255 z m -45.232897,4.39353 c -0.03964,0 -0.07978,0.006 -0.117305,0.0155 -0.02787,0.007 -0.05527,0.0159 -0.08268,0.0243 0.05742,0.005 0.120499,0.0194 0.171567,0.0124 0.04821,-0.007 0.187608,-0.013 0.142626,-0.0315 -0.03573,-0.0147 -0.07456,-0.0207 -0.114205,-0.0207 z m -0.340029,0.0873 c -0.10709,0.0404 -0.212855,0.0851 -0.320395,0.12402 -1.139092,0.43524 -2.120534,1.05384 -3.049426,1.77974 -0.101184,0.39242 -0.370641,0.82187 -0.86093,1.23042 -0.424929,0.35408 -0.858634,0.69767 -1.274858,1.06195 -0.205137,0.17953 -1.099428,0.97612 -1.872236,1.66398 0.268525,0.32872 0.457877,0.83124 0.474905,1.51515 0.03144,1.26273 -0.07553,2.67799 0.202573,3.92379 0.268968,1.2049 0.577612,2.4009 0.876433,3.59875 0.198752,0.79673 0.311676,1.25675 0.422195,1.70222 0.06484,0.005 0.117589,0.01 0.190686,0.015 0.355859,0.0479 0.616804,-0.0686 0.976169,-0.13643 1.115679,-0.21065 2.217079,-0.14835 3.315041,0.16123 0.591728,0.17588 1.196994,0.31272 1.776119,0.52607 0.506783,-0.97441 1.029423,-1.92521 1.598869,-2.84892 -1.709689,-11.06917 1.925992,9.58716 -1.02526,-7.81555 -0.186714,-1.101 -0.454784,-2.18708 -0.682128,-3.28042 -0.198456,-1.00102 -0.365217,-2.00868 -0.595312,-3.00292 -0.01982,-0.0856 -0.190045,-0.14431 -0.152445,-0.21807 z m 89.832246,1.62988 c -0.70734,0.91639 -1.54049,1.68407 -2.40192,2.43292 0.25738,-0.05 0.51516,-0.10211 0.77256,-0.15141 0.63408,-0.12242 1.26321,-0.27354 1.90221,-0.3669 0.54733,-0.08 0.60001,-0.0838 0.94878,-0.13333 -0.41409,-0.58882 -0.81843,-1.18474 -1.22163,-1.78128 z m -55.04161,3.63078 c -1.28741,1.0967 -2.5808,2.18638 -3.86384,3.28817 -1.19496,1.02617 -2.38814,2.05426 -3.58221,3.08147 -1.48502,1.30379 -2.9853,2.59039 -4.45503,3.91139 -3.05802,2.74853 -0.73879,0.97222 -4.65088,4.22765 -0.61557,0.51225 -1.263758,0.98445 -1.914609,1.45107 -2.586723,1.85452 -2.848592,2.01953 -4.428152,2.95486 h 17.195851 c 0.80289,-0.36887 1.60756,-0.73383 2.42104,-1.08159 0.45185,-0.19316 0.91501,-0.35895 1.36426,-0.5581 1.57002,-0.69603 2.96443,-1.3748 4.49998,-2.10995 1.28109,-0.50667 2.42436,-1.28974 3.66696,-1.87276 2.557,-1.19971 1.36689,-0.57145 3.45457,-1.43815 1.59471,-0.66205 3.02539,-1.30506 4.59145,-1.99885 0.68507,-0.36896 1.68368,-0.88484 2.56884,-1.39578 -0.42266,-0.92403 -0.65855,-1.84108 -0.79686,-2.78071 -0.11642,-0.0861 -0.22217,-0.18056 -0.28473,-0.30902 -0.40608,-0.83383 -0.87874,-2.25775 -1.10071,-3.56826 -0.19944,-0.014 -0.26678,-0.0192 -0.51625,-0.0372 -0.93606,-0.0423 -1.87118,-0.11261 -2.8081,-0.1266 -3.33953,-0.0498 0.55415,0.3108 -4.04109,0.005 -2.50578,-0.16666 -4.95542,-0.80871 -7.32049,-1.64227 z m 57.59029,0.64854 c -0.3523,0.0455 -0.74367,0.0976 -1.77095,0.24753 -0.6403,0.0935 -1.271,0.24527 -1.90635,0.36794 -2.04757,0.3922 -4.09614,0.80544 -6.14898,1.19424 -0.98553,0.59068 -1.9827,1.16317 -2.97811,1.73684 -1.03059,0.59396 -1.8022,1.03964 -2.47737,1.40974 0.56537,-0.13005 1.05901,-0.24902 1.36374,-0.32711 3.09329,-0.79276 10.26314,-3.15537 12.83075,-4.15376 0.36895,-0.14347 0.72954,-0.306 1.08727,-0.47542 z m -36.80344,1.38441 c -0.0435,0.007 -0.0425,0.0442 0.0393,0.13798 -0.12426,0.0101 -0.2479,0.0283 -0.37155,0.0455 0.005,0.009 0.009,0.018 0.0139,0.0269 0.57835,1.11979 0.79064,1.37114 1.05058,2.7776 0.0466,0.25189 -0.001,0.5114 -0.0295,0.7674 0.19876,0.046 0.40709,0.0881 0.64234,0.12712 1.93698,0.32119 2.66548,0.38083 3.73775,0.39946 -0.047,-1.04097 -0.29464,-2.06143 -0.48265,-3.08715 -0.36195,-0.0876 -0.75991,-0.18667 -1.30328,-0.32194 -2.47071,-0.61512 -1.73705,-0.284 -2.64274,-0.70384 0.15525,-0.0289 0.10101,-0.0322 -0.0455,-0.046 -2.6e-4,0.0414 -0.10463,0.0125 -0.22481,-0.0258 -0.005,-7.9e-4 -0.005,-2.6e-4 -0.0103,-10e-4 -0.01,-0.002 -0.0138,-0.004 -0.0134,-0.006 -0.14104,-0.0459 -0.2958,-0.0997 -0.36018,-0.0899 z m 38.87411,0.56328 c -0.65601,0.334 -1.31709,0.65653 -2.00194,0.92449 -2.49084,0.97454 -5.04133,1.79293 -7.58455,2.62103 -4.35745,1.41877 -6.61644,2.03028 -11.08511,2.84737 -0.88067,0.16102 -1.77175,0.29069 -2.66651,0.32091 -0.80982,0.0274 -1.61745,-0.0992 -2.42621,-0.14883 -0.44293,-0.17662 -0.8978,-0.29878 -1.35857,-0.39222 -1.38882,0.13246 -2.7891,0.14391 -4.18217,0.23047 -2.49974,-0.008 -5.13089,0.004 -7.57008,-0.66249 -0.0441,0.0735 -0.0857,0.14559 -0.13643,0.22428 -0.0615,0.0618 -0.14709,0.26431 -0.18449,0.18551 -0.057,-0.11996 -0.0835,-0.32421 -0.10386,-0.53433 -0.1046,-0.0324 -0.20887,-0.0656 -0.31265,-0.10077 -10e-4,0.11445 0.005,0.2314 0.0165,0.34985 0.66439,0.69395 1.30085,1.4155 1.99419,2.08049 1.39169,1.33478 4.36682,3.82334 5.77226,4.83382 0.64002,0.46015 1.34338,0.82708 2.04174,1.19269 2.84655,1.49025 3.35217,1.71187 5.05395,2.34611 h 21.1584 c -8e-4,-0.10778 -0.0469,-0.25907 -0.0537,-0.36225 -0.17062,-0.27964 -0.16376,-0.2454 -0.13178,-0.7922 0.0288,-0.49305 0.15303,-0.69914 0.3328,-0.72554 0.77898,-0.1144 2.60843,3.14318 2.31148,1.02371 -0.057,-0.40666 0.004,-0.0602 -0.54932,-0.90175 0.2113,0.19035 0.45832,0.36988 0.56689,0.65009 0.14022,0.3619 0.19484,0.73305 0.19379,1.10794 h 1.49965 V 447.2662 c -0.21095,-0.20174 -0.40478,-0.42066 -0.59428,-0.64337 z m -104.014839,0.28215 c -1.806628,2.06105 -3.613367,4.12417 -5.581571,6.03012 -0.57908,0.60909 -1.177319,1.20064 -1.737362,1.82728 -0.359601,0.40237 -0.687499,0.83191 -1.029393,1.24954 2.088012,0.71594 4.179038,1.44112 6.162931,2.12596 1.669005,0.51151 3.310115,1.10247 4.943885,1.71411 -0.857231,-2.49217 -0.734287,-2.03138 -1.606105,-5.56452 -0.319482,-1.29473 -0.647438,-2.58786 -0.929659,-3.89123 -0.06604,-0.30502 -0.08809,-0.61815 -0.114204,-0.92914 -0.109649,-1.30629 -0.111848,-1.74993 -0.108522,-2.56212 z m 84.665119,0.77928 c -1.84542,0.22257 -3.69878,0.37776 -5.56349,0.42426 -1.22376,0.01 -2.44783,0.0671 -3.67109,0.0295 -0.61007,-0.0188 -1.21617,-0.11375 -1.82056,-0.19896 -0.44527,-0.0628 -0.73692,-0.10586 -1.06092,-0.15348 0.0882,0.60349 0.17597,1.20706 0.2403,1.81333 0.23978,0.0442 0.48024,0.0847 0.72192,0.11627 1.93528,0.25261 1.92733,0.12227 3.4773,0.40773 0.87971,-0.10731 1.74779,-0.3182 2.59623,-0.57413 2.68925,-0.81116 3.75085,-1.18007 5.08031,-1.86448 z m -70.49389,1.54512 c -0.01585,0.0263 0.02082,0.36968 0.129191,1.13844 0.03935,-0.0253 0.07953,-0.0514 0.125058,-0.0816 -0.121225,-0.57915 -0.232839,-1.09234 -0.254249,-1.05679 z m 0.345199,0.95137 c 0.003,0.0181 0.0038,0.0236 0.0067,0.0413 0.0035,-0.002 0.0052,-0.003 0.0088,-0.006 0.01111,-0.008 -0.0019,-0.0211 -0.0155,-0.0351 z m 0.491961,3.17396 c -0.07093,0.10183 -0.140819,0.20414 -0.209809,0.30696 0.01064,0.0677 0.0259,0.15733 0.03772,0.23048 0.09461,-0.29984 0.149101,-0.45617 0.172085,-0.53744 z m 47.7914,1.29347 c -1.02291,0.60364 -2.27018,1.23921 -3.06907,1.66656 -1.66822,0.73889 -2.98829,1.33271 -4.70875,2.0469 -1.87265,0.77738 -0.92142,0.25435 -3.18327,1.31569 -1.27043,0.5961 -2.4401,1.39553 -3.74964,1.91409 -1.02933,0.49263 -1.91009,0.91704 -2.83704,1.34979 h 27.72286 c -0.72861,-0.37932 -1.45962,-0.76309 -2.12856,-1.2392 -1.62288,-1.15511 -4.61755,-3.63028 -6.19962,-5.14336 -0.64007,-0.61216 -1.23811,-1.26683 -1.84691,-1.91047 z m -78.054153,1.84484 v 2.13372 c 0.65872,-0.66328 1.135827,-1.16236 1.536856,-1.62212 -0.43379,-0.14469 -0.885867,-0.29815 -1.303795,-0.43563 -0.108019,-0.0355 -0.132363,-0.0429 -0.233061,-0.076 z m 27.986921,0.75655 c -0.02635,0.0507 -0.05178,0.10174 -0.07803,0.15244 0.04389,0.0434 0.08749,0.0874 0.130741,0.13178 -0.01807,-0.0965 -0.03498,-0.18874 -0.05271,-0.28422 z m -4.973339,0.68574 c 0.189233,0.0534 0.377915,0.0986 0.566373,0.14521 0.0021,-0.009 0.0046,-0.0152 0.0067,-0.0238 -0.131916,-0.0276 -0.264112,-0.0541 -0.394808,-0.0858 -0.07363,-0.0138 -0.114501,-0.023 -0.178282,-0.0357 z m -17.97513,0.25115 c -1.223772,1.38391 -2.489144,2.72849 -3.850412,3.98477 -0.100066,0.0924 -0.235882,0.13583 -0.353984,0.20361 -0.128809,0.0776 -0.262419,0.14765 -0.38654,0.23254 -0.151495,0.10361 -0.258233,0.30147 -0.439248,0.33176 -0.0028,5.3e-4 -0.0055,5.3e-4 -0.0083,10e-4 v 10e-4 h 18.666561 c -2.137985,-0.8124 -4.278379,-1.61781 -6.466272,-2.28823 -2.244812,-0.77495 -4.725482,-1.63442 -7.161836,-2.46652 z m 15.823322,1.76165 c 0.171683,0.39325 0.298291,0.81054 0.520898,1.17616 0.519438,0.19556 1.039969,0.38812 1.561145,0.57877 0.131519,-0.31585 0.264607,-0.63094 0.401527,-0.94413 -0.418447,-0.10441 -0.836756,-0.20942 -1.250054,-0.33228 -0.396583,-0.11789 -0.822311,-0.28753 -1.233516,-0.47852 z m 5.113901,1.44436 c -0.176072,0.39451 -0.346506,0.79187 -0.514181,1.19062 0.20201,0.0665 0.403723,0.13395 0.606166,0.19896 0.276347,-0.37956 0.550325,-0.76081 0.825788,-1.14102 -0.30004,-0.0926 -0.607607,-0.17413 -0.917773,-0.24856 z m 7.205244,0.52865 c -0.02029,2.6e-4 -0.03933,0.002 -0.05994,0.002 -0.126058,0 -0.252214,-10e-6 -0.378272,0 -0.201446,10e-6 -0.402653,6e-5 -0.604096,0 -0.160986,10e-6 -0.322197,7.9e-4 -0.483177,-5.3e-4 -0.0056,-3e-5 -0.01244,2e-5 -0.0181,0 0.06007,0.26937 0.118727,0.52564 0.173633,0.75706 0.455703,-0.24145 0.912749,-0.49772 1.369941,-0.75861 z m 82.599094,0.9033 c -0.005,0.0412 -0.007,0.0801 -0.006,0.11679 h 0.0661 c -0.0177,-0.0327 -0.0436,-0.0873 -0.0599,-0.11679 z" />
    </clipPath>
  </defs>
  <sodipodi:namedview
     id="base"
     pagecolor="#ffffff"
     bordercolor="#666666"
     borderopacity="1.0"
     inkscape:pageopacity="0.0"
     inkscape:pageshadow="2"
     inkscape:zoom="0.99437388"
     inkscape:cx="284.27627"
     inkscape:cy="182.72055"
     inkscape:document-units="mm"
     inkscape:current-layer="layer1"
     showgrid="true"
     showborder="true"
     width="200mm"
     showguides="true"
     inkscape:guide-bbox="true"
     inkscape:window-width="2520"
     inkscape:window-height="995"
     inkscape:window-x="20"
     inkscape:window-y="65"
     inkscape:window-maximized="1"
     inkscape:showpageshadow="0"
     inkscape:pagecheckerboard="0"
     inkscape:deskcolor="#d1d1d1">
    <inkscape:grid
       type="xygrid"
       id="grid815"
       units="mm"
       spacingx="10"
       spacingy="10"
       empspacing="4"
       dotted="false"
       originx="-16.311973"
       originy="-216.67878" />
  </sodipodi:namedview>
  <metadata
     id="metadata5">
    <rdf:RDF>
      <cc:Work
         rdf:about="">
        <dc:format>image/svg+xml</dc:format>
        <dc:type
           rdf:resource="http://purl.org/dc/dcmitype/StillImage" />
        <dc:title />
      </cc:Work>
    </rdf:RDF>
  </metadata>
  <g
     inkscape:label="Layer 1"
     inkscape:groupmode="layer"
     id="layer1"
     transform="translate(-16.311972,-393.67877)">
    <path
       style="font-variation-settings:normal;opacity:1;vector-effect:none;fill:#d1dd68;fill-opacity:1;stroke:#000000;stroke-width:0.264583;stroke-linecap:butt;stroke-linejoin:miter;stroke-miterlimit:4;stroke-dasharray:none;stroke-dashoffset:0;stroke-opacity:1;-inkscape-stroke:none;stop-color:#000000;stop-opacity:1"
       d="m 116.93919,462.00737 c 0,0 -0.62051,63.84057 -0.62051,63.84057 0,0 82.514,0.36274 82.514,0.36274 0,0 -81.89349,-64.20331 -81.89349,-64.20331 z"
       id="path356"
       inkscape:path-effect="#path-effect358"
       inkscape:original-d="m 116.93919,462.00737 -0.62051,63.84057 82.514,0.36274 z" />
    <path
       style="font-variation-settings:normal;opacity:0.4;vector-effect:none;fill:#8686bf;fill-opacity:0;stroke:none;stroke-width:1.00724;stroke-linecap:butt;stroke-linejoin:round;stroke-miterlimit:4;stroke-dasharray:none;stroke-dashoffset:0;stroke-opacity:1;-inkscape-stroke:none;stop-color:#000000;stop-opacity:1"
       d="m 136.61079,525.70141 -20.06167,-0.0699 0.1733,-16.16268 c 0.42726,-39.84548 0.52561,-46.62863 0.67605,-46.62462 0.11486,0.003 70.88743,55.39898 79.60911,62.31255 l 0.90733,0.71923 -20.62122,-0.0523 c -11.34168,-0.0288 -29.64898,-0.0838 -40.6829,-0.12223 z"
       id="path429" />
    <ellipse
       style="font-variation-settings:normal;opacity:1;fill:#e5ff00;fill-opacity:1;fill-rule:evenodd;stroke:#11ff00;stroke-width:0.265;stroke-linecap:butt;stroke-linejoin:miter;stroke-miterlimit:4;stroke-dasharray:0.265, 1.06;stroke-dashoffset:0;stroke-opacity:1;stop-color:#000000;stop-opacity:1"
       id="path3142"
       cx="256.68906"
       cy="502.08569"
       rx="22.754545"
       ry="24.714291" />
    <path
       style="font-variation-settings:normal;opacity:1;vector-effect:none;fill:none;fill-opacity:1;stroke:#000000;stroke-width:0.264583;stroke-linecap:butt;stroke-linejoin:miter;stroke-miterlimit:4;stroke-dasharray:none;stroke-dashoffset:0;stroke-opacity:1;-inkscape-stroke:none;stop-color:#000000;stop-opacity:1"
       d="m 57.827779,439.41029 c 0.356011,0.5699 0.710094,1.13671 4.04166,4.5316 3.331566,3.39488 9.639889,9.61832 15.564005,13.26846 5.924116,3.65014 11.463644,4.72901 15.401623,4.23943 3.937979,-0.48957 6.277268,-2.54684 7.769443,-4.32744 1.49218,-1.7806 2.13798,-3.28597 3.05908,-6.24378 0.92109,-2.9578 2.11741,-7.36856 2.8573,-10.21187 0.73989,-2.8433 1.02328,-4.11931 1.55452,-5.60757 0.53124,-1.48825 1.31043,-3.18798 1.84187,-4.21531 0.53143,-1.02734 0.81484,-1.38141 1.09952,-1.55862 0.28469,-0.1772 0.56774,-0.1772 0.922,-0.14161 0.35425,0.0356 0.77937,0.10626 2.02858,1.35936 1.24921,1.2531 3.32311,3.68628 5.36206,6.30507 2.03894,2.61879 4.04321,5.42303 5.89411,7.84314 1.85091,2.42012 3.54821,4.45626 6.21735,7.11862 2.66914,2.66236 6.30972,5.95129 9.1216,7.91375 2.81188,1.96247 4.79467,2.59995 6.35244,2.91819 1.55776,0.31823 2.69103,0.31823 4.35451,-0.31932 1.66348,-0.63755 3.85898,-1.91218 5.4876,-2.97431 1.62862,-1.06213 2.69087,-1.91199 4.51088,-3.91425 1.82002,-2.00225 4.39837,-5.15746 6.08567,-7.42216 1.68731,-2.2647 2.48382,-3.63945 3.55781,-6.10472 1.07399,-2.46527 2.42552,-6.02167 3.27835,-8.40188 0.85282,-2.3802 1.2069,-3.58449 1.66735,-5.17801 0.46045,-1.59353 1.02726,-3.57631 1.59457,-5.56084"
       id="path4178"
       inkscape:path-effect="#path-effect4180"
       inkscape:original-d="m 57.827779,439.41029 c 0.356727,0.56945 0.710809,1.13626 1.062242,1.70042 6.310968,6.22608 12.619288,12.44952 18.924965,18.67031 5.542174,1.08152 11.081703,2.16039 16.618588,3.23662 2.341935,-2.05463 4.681225,-4.1119 7.017866,-6.17181 0.64845,-1.50272 1.29425,-3.00809 1.9374,-4.5161 1.19897,-4.40812 2.39529,-8.81888 3.58897,-13.23229 0.28604,-1.27337 0.56945,-2.54937 0.8502,-3.82803 0.78184,-1.69708 1.56102,-3.39681 2.33756,-5.09918 0.28605,-0.35143 0.56945,-0.70551 0.85021,-1.06224 0.28571,0.003 0.56876,0.003 0.84917,0 0.42775,0.0733 0.85286,0.144 1.27532,0.21203 2.07654,2.43583 4.15045,4.86901 6.2217,7.29954 2.00691,2.80688 4.01118,5.61112 6.0128,8.41271 1.69994,2.03879 3.39724,4.07493 5.0919,6.10842 3.64324,3.29158 7.28382,6.58051 10.92177,9.8668 1.98542,0.64013 3.96821,1.27761 5.94835,1.91245 1.13591,0.003 2.26918,0.003 3.3998,0 2.19815,-1.27198 4.39366,-2.5466 6.58652,-3.82387 1.06489,-0.84721 2.12713,-1.69708 3.18673,-2.54959 2.58099,-3.15255 5.15934,-6.30775 7.73504,-9.46559 0.79916,-1.37211 1.59566,-2.74686 2.38953,-4.12425 1.35418,-3.55375 2.70571,-7.11015 4.0546,-10.6692 0.35673,-1.20164 0.71081,-2.40593 1.06224,-3.61287 0.56946,-1.98014 1.13626,-3.96292 1.70043,-5.94835"
       clip-path="url(#clipPath4250)" />
    <path
       sodipodi:type="spiral"
       style="fill:none;fill-rule:evenodd;stroke:#000000;stroke-width:0.264583"
       id="path4307"
       sodipodi:cx="225.65628"
       sodipodi:cy="353.55554"
       sodipodi:expansion="1"
       sodipodi:revolution="3"
       sodipodi:radius="96.92939"
       sodipodi:argument="-20.112688"
       sodipodi:t0="0"
       d="m 225.65628,353.55554 c 1.47174,-4.63168 6.96952,-0.30124 7.69816,2.44612 1.97458,7.44518 -6.02279,12.94689 -12.5904,12.9502 -11.74792,0.006 -19.27599,-11.87554 -18.20224,-22.73468 1.57577,-15.93623 17.78604,-25.73277 32.87896,-23.45428 20.11649,3.03687 32.24036,23.71421 28.70632,43.02325 -4.44723,24.29845 -29.6501,38.77349 -53.16752,33.95836 -28.48276,-5.83178 -45.3213,-35.59021 -39.2104,-63.31181 7.20147,-32.66896 41.5329,-51.87828 73.45609,-44.46244 36.85658,8.56187 58.44138,47.47735 49.71448,83.60037 -9.91606,41.04527 -53.42303,65.00878 -93.74466,54.96652 -45.23477,-11.2659 -71.57929,-59.3696 -60.21856,-103.88894 12.61257,-49.4249 65.31686,-78.15215 114.03322,-65.4706"
       transform="matrix(0.26458333,0,0,0.26458333,16.311972,393.67877)" />
    <path
       sodipodi:type="spiral"
       style="fill:none;fill-rule:evenodd;stroke:#000000;stroke-width:0.264583"
       id="path4309"
       sodipodi:cx="254.66211"
       sodipodi:cy="255.92567"
       sodipodi:expansion="1"
       sodipodi:revolution="2.740031"
       sodipodi:radius="96.575462"
       sodipodi:argument="-18.794168"
       sodipodi:t0="0"
       d="m 254.66211,255.92567 c 5.29342,0.29349 2.21597,7.28023 -0.4878,8.79802 -7.32705,4.11312 -15.31641,-2.83681 -17.10824,-9.77361 -3.20515,-12.40831 7.296,-23.59584 19.05944,-25.41846 17.26331,-2.67477 32.02585,11.78142 33.72867,28.34525 2.26959,22.07698 -16.27166,40.51435 -37.63106,42.03889 -26.87863,1.91849 -49.03194,-20.7631 -50.34912,-46.91688 -1.59528,-31.67572 25.25501,-57.56615 56.2027,-58.65933 36.47078,-1.28827 66.11078,29.74717 66.96955,65.48851 0.99148,41.26481 -34.23949,74.66236 -74.77433,75.27977 -46.05826,0.70155 -83.2188,-38.73194 -83.58999,-84.06014 -0.39719,-48.5037 39.4892,-88.57122 87.28005,-91.69494"
       transform="matrix(0.26458333,0,0,0.26458333,16.311972,393.67877)" />
    <path
       sodipodi:type="spiral"
       style="fill:none;fill-rule:evenodd;stroke:#000000;stroke-width:0.264583"
       id="path4311"
       sodipodi:cx="543.07288"
       sodipodi:cy="428.30066"
       sodipodi:expansion="1"
       sodipodi:revolution="2.740031"
       sodipodi:radius="213.80237"
       sodipodi:argument="-19.572317"
       sodipodi:t0="0"
       d="m 543.07288,428.30066 c 8.80237,-7.76339 14.80766,8.03524 12.90325,14.63012 -5.16084,17.87172 -28.55829,19.32928 -42.1635,11.17639 -24.33653,-14.5836 -25.16484,-48.54238 -9.44952,-69.69688 23.06285,-31.04508 68.80469,-31.19305 97.23026,-7.72266 37.88681,31.28235 37.30454,89.1667 5.99579,124.76365 -39.39887,44.79512 -109.57645,43.45934 -152.29702,4.26892 -51.74035,-47.46485 -49.63927,-130.01313 -2.54206,-179.8304 55.50243,-58.70793 150.46662,-55.83498 207.36378,-0.8152 65.69003,63.52253 62.04122,170.93132 -0.91167,234.89717 -71.53108,72.68206 -191.4039,68.25481 -262.43055,-2.63854 -76.00245,-75.85983 -75.37863,-201.02 -4.87988,-280.21366"
       transform="matrix(0.26458333,0,0,0.26458333,16.311972,393.67877)" />
  </g>
</svg>
