<?xml version="1.0" encoding="UTF-8" standalone="no"?>
<!-- Created with Inkscape (http://www.inkscape.org/) -->

<svg
   width="210mm"
   height="297mm"
   viewBox="0 0 210 297"
   version="1.1"
   id="svg130"
   inkscape:version="1.2.1 (9c6d41e410, 2022-07-14)"
   sodipodi:docname="misc.svg"
   xmlns:inkscape="http://www.inkscape.org/namespaces/inkscape"
   xmlns:sodipodi="http://sodipodi.sourceforge.net/DTD/sodipodi-0.dtd"
   xmlns:xlink="http://www.w3.org/1999/xlink"
   xmlns="http://www.w3.org/2000/svg"
   xmlns:svg="http://www.w3.org/2000/svg">
  <sodipodi:namedview
     id="namedview132"
     pagecolor="#505050"
     bordercolor="#eeeeee"
     borderopacity="1"
     inkscape:showpageshadow="0"
     inkscape:pageopacity="0"
     inkscape:pagecheckerboard="0"
     inkscape:deskcolor="#505050"
     inkscape:document-units="mm"
     showgrid="false"
     inkscape:current-layer="layer2" />
  <defs
     id="defs127">
    <inkscape:path-effect
       effect="bspline"
       id="path-effect13462"
       is_visible="true"
       lpeversion="1"
       weight="33.333333"
       steps="2"
       helper_size="0"
       apply_no_weight="true"
       apply_with_weight="true"
       only_selected="false" />
    <inkscape:path-effect
       effect="powerstroke"
       id="path-effect13456"
       is_visible="true"
       lpeversion="1"
       offset_points="0.40367901,4.2960462"
       not_jump="true"
       sort_points="true"
       interpolator_type="CentripetalCatmullRom"
       interpolator_beta="0.75"
       start_linecap_type="round"
       linejoin_type="spiro"
       miter_limit="4"
       scale_width="1"
       end_linecap_type="round" />
    <inkscape:path-effect
       effect="simplify"
       id="path-effect13454"
       is_visible="true"
       lpeversion="1"
       steps="1"
       threshold="0.0032025118"
       smooth_angles="0"
       helper_size="0"
       simplify_individual_paths="false"
       simplify_just_coalesce="false"
       step="1" />
    <inkscape:path-effect
       effect="powerstroke"
       id="path-effect12982"
       is_visible="true"
       lpeversion="1"
       offset_points="1.0569749,4.2960462"
       not_jump="true"
       sort_points="true"
       interpolator_type="CentripetalCatmullRom"
       interpolator_beta="0.75"
       start_linecap_type="round"
       linejoin_type="spiro"
       miter_limit="4"
       scale_width="1"
       end_linecap_type="round" />
    <inkscape:path-effect
       effect="simplify"
       id="path-effect12980"
       is_visible="true"
       lpeversion="1"
       steps="1"
       threshold="0.0032025118"
       smooth_angles="0"
       helper_size="0"
       simplify_individual_paths="false"
       simplify_just_coalesce="false"
       step="1" />
    <inkscape:path-effect
       effect="powerstroke"
       id="path-effect12975"
       is_visible="true"
       lpeversion="1"
       offset_points="1.6002218,4.2960462"
       not_jump="true"
       sort_points="true"
       interpolator_type="CentripetalCatmullRom"
       interpolator_beta="0.75"
       start_linecap_type="round"
       linejoin_type="spiro"
       miter_limit="4"
       scale_width="1"
       end_linecap_type="round" />
    <inkscape:path-effect
       effect="simplify"
       id="path-effect12973"
       is_visible="true"
       lpeversion="1"
       steps="1"
       threshold="0.0032025118"
       smooth_angles="0"
       helper_size="0"
       simplify_individual_paths="false"
       simplify_just_coalesce="false"
       step="1" />
    <inkscape:path-effect
       effect="powerstroke"
       id="path-effect12862"
       is_visible="true"
       lpeversion="1"
       offset_points="2.1156701,4.2960462"
       not_jump="true"
       sort_points="true"
       interpolator_type="CentripetalCatmullRom"
       interpolator_beta="0.75"
       start_linecap_type="round"
       linejoin_type="spiro"
       miter_limit="4"
       scale_width="1"
       end_linecap_type="round" />
    <inkscape:path-effect
       effect="simplify"
       id="path-effect12860"
       is_visible="true"
       lpeversion="1"
       steps="1"
       threshold="0.0032025118"
       smooth_angles="0"
       helper_size="0"
       simplify_individual_paths="false"
       simplify_just_coalesce="false"
       step="1" />
    <inkscape:path-effect
       effect="powerstroke"
       id="path-effect11527"
       is_visible="true"
       lpeversion="1"
       offset_points="2.5823351,4.2960462"
       not_jump="true"
       sort_points="true"
       interpolator_type="CentripetalCatmullRom"
       interpolator_beta="0.75"
       start_linecap_type="round"
       linejoin_type="spiro"
       miter_limit="4"
       scale_width="1"
       end_linecap_type="round" />
    <inkscape:path-effect
       effect="simplify"
       id="path-effect11525"
       is_visible="true"
       lpeversion="1"
       steps="1"
       threshold="0.0032025118"
       smooth_angles="0"
       helper_size="0"
       simplify_individual_paths="false"
       simplify_just_coalesce="false"
       step="1" />
    <linearGradient
       inkscape:collect="always"
       id="linearGradient11386">
      <stop
         style="stop-color:#d35f5f;stop-opacity:1;"
         offset="0"
         id="stop11382" />
      <stop
         style="stop-color:#d35f5f;stop-opacity:0;"
         offset="1"
         id="stop11384" />
    </linearGradient>
    <inkscape:perspective
       sodipodi:type="inkscape:persp3d"
       inkscape:vp_x="0 : 148.5 : 1"
       inkscape:vp_y="0 : 1000 : 0"
       inkscape:vp_z="210 : 148.5 : 1"
       inkscape:persp3d-origin="105 : 99 : 1"
       id="perspective411" />
    <linearGradient
       inkscape:collect="always"
       xlink:href="#linearGradient11386"
       id="linearGradient11293"
       x1="103.85777"
       y1="347.40469"
       x2="118.71634"
       y2="153.61748"
       gradientUnits="userSpaceOnUse"
       gradientTransform="matrix(0.26458333,0,0,0.26458333,-153.9797,-341.77957)" />
  </defs>
  <g
     inkscape:label="图层 1"
     inkscape:groupmode="layer"
     id="layer1"
     transform="translate(76.989849,170.88979)">
    <path
       sodipodi:type="spiral"
       style="fill:none;fill-rule:evenodd;stroke:#000000;stroke-width:0.264583"
       id="path187"
       sodipodi:cx="42.049789"
       sodipodi:cy="62.188625"
       sodipodi:expansion="1"
       sodipodi:revolution="3"
       sodipodi:radius="29.572081"
       sodipodi:argument="-18.319147"
       sodipodi:t0="0"
       d="m 42.049789,62.188625 c 1.278975,0.750076 -0.380086,2.094094 -1.246675,2.125741 -2.348403,0.08576 -3.446452,-2.664663 -3.004806,-4.619091 0.790003,-3.496013 4.832719,-4.935234 7.991507,-3.883871 4.635649,1.542917 6.458114,7.026562 4.762937,11.363922 -2.259405,5.78102 -9.229085,7.99492 -14.736339,5.642002 C 28.886097,69.856421 26.277605,61.3817 29.295346,54.708574 32.950235,46.626524 42.939759,43.6218 50.776516,47.308442 60.011863,51.653021 63.413813,63.163032 59.055714,72.162027 54.024115,82.551722 40.990014,86.351553 30.829713,81.32029 19.284932,75.603449 15.086763,61.042827 20.792384,49.721873 27.193228,37.021474 43.282089,32.424633 55.763217,38.805479 69.619634,45.889428 74.615398,63.507786 67.558676,77.148728"
       transform="translate(-73.209552,-154.55922)" />
    <path
       sodipodi:type="spiral"
       style="fill:#ddff55;fill-rule:evenodd;stroke:#000000;stroke-width:0.264583"
       id="path189"
       sodipodi:cx="36.445911"
       sodipodi:cy="55.545418"
       sodipodi:expansion="1"
       sodipodi:revolution="3"
       sodipodi:radius="24.038874"
       sodipodi:argument="-18.475212"
       sodipodi:t0="0"
       d="m 36.445911,55.545418 c 1.121804,0.440721 -0.04063,1.729605 -0.732508,1.86451 -1.874959,0.365587 -3.104219,-1.704297 -2.996513,-3.329527 0.192662,-2.907154 3.257164,-4.57366 5.926546,-4.128515 3.917426,0.653268 6.073742,4.82643 5.260518,8.523565 -1.083899,4.927699 -6.400906,7.586102 -11.120584,6.39252 -5.939233,-1.502001 -9.104657,-7.977717 -7.524523,-13.717603 1.913755,-6.951772 9.555812,-10.62677 16.314623,-8.656525 7.965024,2.321867 12.151112,11.134702 9.788527,18.911641 -2.727699,8.978784 -12.714125,13.676943 -21.50866,10.92053 C 19.860427,69.194002 14.649522,58.032092 17.800805,48.220335 21.336068,37.213026 33.674798,31.488892 44.503503,35.035801 56.525417,38.973542 62.763142,52.490073 58.820039,64.335517"
       transform="translate(13.350187,-151.82496)" />
    <rect
       style="fill:#ddff55;fill-opacity:0;fill-rule:evenodd;stroke-width:0.661458"
       id="rect351"
       width="154.58495"
       height="75.405678"
       x="-62.475029"
       y="-144.03053"
       rx="4.7489586"
       ry="4.3603754" />
    <g
       sodipodi:type="inkscape:box3d"
       id="g413"
       style="fill:#ddff55;fill-opacity:0;fill-rule:evenodd;stroke-width:2.5"
       inkscape:perspectiveID="#perspective411"
       inkscape:corner0="2.370941 : 0.453589 : 0 : 1"
       inkscape:corner7="-0.37007531 : 0.052643125 : 0.25 : 1">
      <path
         sodipodi:type="inkscape:box3dside"
         id="path425"
         style="fill:#e9e9ff;fill-rule:evenodd;stroke:none;stroke-linejoin:round"
         inkscape:box3dsidetype="11"
         d="M -33.492868,-133.98757 102.00275,-481.62112 v 455.659296 l -135.495618,2.703997 z"
         points="102.00275,-481.62112 102.00275,-25.961824 -33.492868,-23.257827 -33.492868,-133.98757 " />
      <path
         sodipodi:type="inkscape:box3dside"
         id="path415"
         style="fill:#353564;fill-rule:evenodd;stroke:none;stroke-linejoin:round"
         inkscape:box3dsidetype="6"
         d="m -45.841276,-142.26403 v 118.941827 l 12.348408,0.06438 V -133.98757 Z"
         points="-45.841276,-23.322203 -33.492868,-23.257827 -33.492868,-133.98757 -45.841276,-142.26403 " />
      <path
         sodipodi:type="inkscape:box3dside"
         id="path417"
         style="fill:#4d4d9f;fill-rule:evenodd;stroke:none;stroke-linejoin:round"
         inkscape:box3dsidetype="5"
         d="M -45.841276,-142.26403 89.696747,-663.87756 102.00275,-481.62112 -33.492868,-133.98757 Z"
         points="89.696747,-663.87756 102.00275,-481.62112 -33.492868,-133.98757 -45.841276,-142.26403 " />
      <path
         sodipodi:type="inkscape:box3dside"
         id="path423"
         style="fill:#afafde;fill-rule:evenodd;stroke:none;stroke-linejoin:round"
         inkscape:box3dsidetype="13"
         d="m -45.841276,-23.322203 135.538023,-4.057266 12.306003,1.417645 -135.495618,2.703997 z"
         points="89.696747,-27.379469 102.00275,-25.961824 -33.492868,-23.257827 -45.841276,-23.322203 " />
      <path
         sodipodi:type="inkscape:box3dside"
         id="path421"
         style="fill:#d7d7ff;fill-rule:evenodd;stroke:none;stroke-linejoin:round"
         inkscape:box3dsidetype="14"
         d="m 89.696747,-663.87756 v 636.498091 l 12.306003,1.417645 V -481.62112 Z"
         points="89.696747,-27.379469 102.00275,-25.961824 102.00275,-481.62112 89.696747,-663.87756 " />
      <path
         sodipodi:type="inkscape:box3dside"
         id="path419"
         style="fill:#8686bf;fill-rule:evenodd;stroke:none;stroke-linejoin:round"
         inkscape:box3dsidetype="3"
         d="M -45.841276,-142.26403 89.696747,-663.87756 v 636.498091 l -135.538023,4.057266 z"
         points="89.696747,-663.87756 89.696747,-27.379469 -45.841276,-23.322203 -45.841276,-142.26403 " />
    </g>
    <rect
       style="opacity:0.488734;fill:#fff755;fill-opacity:0;fill-rule:evenodd;stroke-width:0.661458"
       id="rect427"
       width="29.269053"
       height="26.052612"
       x="-24.034367"
       y="-141.4518" />
    <rect
       style="opacity:0.488734;fill:#39e367;fill-opacity:0;fill-rule:evenodd;stroke-width:0.661458"
       id="rect1158"
       width="69.407997"
       height="62.497402"
       x="-21.11216"
       y="-141.98544" />
    <path
       sodipodi:type="spiral"
       style="fill:none;fill-rule:evenodd;stroke:#000000;stroke-width:0.264583"
       id="path10871"
       sodipodi:cx="42.049789"
       sodipodi:cy="62.188625"
       sodipodi:expansion="1"
       sodipodi:revolution="3"
       sodipodi:radius="29.572081"
       sodipodi:argument="-18.319147"
       sodipodi:t0="0"
       d="m 42.049789,62.188625 c 1.278975,0.750076 -0.380086,2.094094 -1.246675,2.125741 -2.348403,0.08576 -3.446452,-2.664663 -3.004806,-4.619091 0.790003,-3.496013 4.832719,-4.935234 7.991507,-3.883871 4.635649,1.542917 6.458114,7.026562 4.762937,11.363922 -2.259405,5.78102 -9.229085,7.99492 -14.736339,5.642002 C 28.886097,69.856421 26.277605,61.3817 29.295346,54.708574 32.950235,46.626524 42.939759,43.6218 50.776516,47.308442 60.011863,51.653021 63.413813,63.163032 59.055714,72.162027 54.024115,82.551722 40.990014,86.351553 30.829713,81.32029 19.284932,75.603449 15.086763,61.042827 20.792384,49.721873 27.193228,37.021474 43.282089,32.424633 55.763217,38.805479 69.619634,45.889428 74.615398,63.507786 67.558676,77.148728"
       transform="translate(-59.649397,-159.49818)"
       inkscape:spray-origin="#path187" />
    <path
       sodipodi:type="spiral"
       style="fill:#aad400;fill-rule:evenodd;stroke:#000000;stroke-width:0.264583"
       id="path10873"
       sodipodi:cx="42.049789"
       sodipodi:cy="62.188625"
       sodipodi:expansion="1"
       sodipodi:revolution="3"
       sodipodi:radius="29.572081"
       sodipodi:argument="-18.319147"
       sodipodi:t0="0"
       d="m 42.049789,62.188625 c 1.278975,0.750076 -0.380086,2.094094 -1.246675,2.125741 -2.348403,0.08576 -3.446452,-2.664663 -3.004806,-4.619091 0.790003,-3.496013 4.832719,-4.935234 7.991507,-3.883871 4.635649,1.542917 6.458114,7.026562 4.762937,11.363922 -2.259405,5.78102 -9.229085,7.99492 -14.736339,5.642002 C 28.886097,69.856421 26.277605,61.3817 29.295346,54.708574 32.950235,46.626524 42.939759,43.6218 50.776516,47.308442 60.011863,51.653021 63.413813,63.163032 59.055714,72.162027 54.024115,82.551722 40.990014,86.351553 30.829713,81.32029 19.284932,75.603449 15.086763,61.042827 20.792384,49.721873 27.193228,37.021474 43.282089,32.424633 55.763217,38.805479 69.619634,45.889428 74.615398,63.507786 67.558676,77.148728"
       transform="translate(-60.595329,-157.31365)"
       inkscape:spray-origin="#path187" />
    <path
       sodipodi:type="spiral"
       style="fill:#ccff00;fill-rule:evenodd;stroke:#000000;stroke-width:0.264583"
       id="path10875"
       sodipodi:cx="-23.313881"
       sodipodi:cy="-41.606762"
       sodipodi:expansion="1"
       sodipodi:revolution="3"
       sodipodi:radius="33.801044"
       sodipodi:argument="-18.088337"
       sodipodi:t0="0"
       d="m -23.313881,-41.606762 c 1.226978,1.169033 -0.970485,2.230701 -1.943009,2.039318 -2.63548,-0.518637 -3.13809,-3.866138 -2.135626,-5.925337 1.793172,-3.683423 6.667809,-4.227742 9.907663,-2.231934 4.754617,2.92893 5.348594,9.507091 2.328242,13.88999 -4.025654,5.841717 -12.35967,6.482672 -17.872317,2.424551 -6.937103,-5.106732 -7.623578,-15.218576 -2.520858,-21.854644 6.180077,-8.037167 18.081042,-8.768436 25.8369706,-2.617167 9.1400932,7.249058 9.91577432,20.945728 2.7134749,29.819298 -8.3153395,10.244888 -23.8118945,11.064768 -33.8016245,2.809783 -11.350966,-9.379838 -12.214919,-26.679102 -2.906091,-37.783952 10.443097,-12.457963 29.547068,-13.365909 41.766278,-3.002399 13.565639,11.505461 14.517531,32.415606 3.0987077,45.748605" />
    <path
       sodipodi:type="spiral"
       style="fill:#d4ff2a;fill-rule:evenodd;stroke:#000000;stroke-width:0.264583"
       id="path10877"
       sodipodi:cx="23.213196"
       sodipodi:cy="-41.041775"
       sodipodi:expansion="1"
       sodipodi:revolution="3"
       sodipodi:radius="15.624062"
       sodipodi:argument="-18.13825"
       sodipodi:t0="0"
       d="m 23.213196,-41.041775 c 0.593407,0.5114 -0.39659,1.052208 -0.849979,0.986282 -1.228658,-0.178654 -1.537894,-1.712471 -1.122586,-2.68624 0.742889,-1.741845 2.980763,-2.105556 4.522503,-1.258888 2.262565,1.242519 2.688488,4.265696 1.395191,6.358763 -1.723763,2.78973 -5.556466,3.277834 -8.195026,1.531494 -3.320358,-2.197591 -3.870477,-6.849997 -1.667796,-10.031287 2.667742,-3.852967 8.145081,-4.465028 11.867548,-1.804099 4.386798,3.135812 5.060775,9.441133 1.940402,13.70381 -3.602593,4.921428 -10.73783,5.657319 -15.540071,2.076705 -5.456611,-4.068522 -6.2544226,-12.034982 -2.213008,-17.376333 4.533856,-5.992189 13.332464,-6.851931 19.212594,-2.349311 6.52806,4.998762 7.449744,14.630195 2.485614,21.048856" />
    <path
       sodipodi:type="spiral"
       style="fill:#2dff00;fill-opacity:1;fill-rule:evenodd;stroke:#000000;stroke-width:0.265;stroke-dasharray:none"
       id="path10879"
       sodipodi:cx="99.216293"
       sodipodi:cy="165.63496"
       sodipodi:expansion="1"
       sodipodi:revolution="3"
       sodipodi:radius="17.412424"
       sodipodi:argument="-18.18512"
       sodipodi:t0="0"
       d="m 99.216293,165.63496 c 0.687307,0.53833 -0.386558,1.19207 -0.89473,1.14235 -1.377117,-0.13473 -1.801458,-1.82608 -1.389967,-2.93181 0.736062,-1.97788 3.208354,-2.49962 4.968894,-1.63758 2.58365,1.26508 3.21566,4.60836 1.8852,7.00597 -1.77329,3.19564 -6.01452,3.93914 -9.043051,2.13282 -3.811096,-2.27307 -4.666435,-7.42358 -2.380437,-11.08013 2.76865,-4.42857 8.834278,-5.39594 13.117208,-2.62806 5.04729,3.26185 6.12681,10.24599 2.87567,15.15429 -3.75357,5.66683 -11.658365,6.85862 -17.191364,3.12329 -6.286945,-4.24432 -7.591068,-13.07123 -3.370909,-19.22844 4.734381,-6.90747 14.484433,-8.32399 21.265523,-3.61853 7.5283,5.22395 9.05726,15.8979 3.86615,23.3026"
       transform="translate(-67.476088,-165.50819)" />
    <path
       style="opacity:0.488734;fill:#2dff00;fill-opacity:1;fill-rule:evenodd;stroke-width:0.286853;stroke-dasharray:none"
       d="m 33.991342,1.6554596 c -2.12284,-1.77791997 -2.43442,-1.94517997 -2.43442,-1.30684997 0,0.66957997 -0.83872,0.76714997 -1.43852,0.16735 -0.7709,-0.7709 -0.71115,-1.78223003 0.16697,-2.82582003 2.29235,-2.72431 6.78596,0.0204 6.35101,3.87924 -0.0802,0.71176 -0.25709,1.4001 -0.39304,1.52963 -0.13595,0.12953 -1.14935,-0.52007 -2.252,-1.44355 z"
       id="path11066" />
    <path
       style="opacity:0.488734;fill:#ff0000;fill-opacity:1;fill-rule:evenodd;stroke-width:0.286853;stroke-dasharray:none"
       d="m 27.619072,11.8409 c -4.916134,-1.38412 -8.410137,-5.3976004 -9.29247,-10.6740304 -0.703392,-4.20635 0.756521,-8.55186 3.945986,-11.7454296 6.734814,-6.74348 18.022864,-5.36266 23.333764,2.8543296 1.87672,2.90366 2.41592,4.95006 2.43701,9.2491 0.01,2.04778 -0.0624,3.78768 -0.161,3.86644 -0.0986,0.0788 -0.46463,0.85576 -0.81342,1.72666 -0.34878,0.8709 -0.88814,2.00109 -1.19856,2.51153 l -0.56439,0.9280804 -1.86104,-1.4625304 c -2.18022,-1.71336 -2.30837,-1.8794 -1.86392,-2.41492 0.18464,-0.22249 0.25257,-0.53905 0.15095,-0.70347 -0.10162,-0.16442 -0.0609,-0.29895 0.0905,-0.29895 0.15141,0 0.40741,-0.379 0.56889,-0.84223 0.48225,-1.38338 -0.29913,-0.78001 -0.91035,0.70296 -0.52594,1.27607 -0.84939,1.54773 -1.18884,0.99849 -0.0973,-0.15753 -0.31826,-0.28641 -0.49089,-0.28641 -0.17264,0 -0.0773,0.2614 0.2118,0.58089 0.51551,0.56963 0.50111,0.60602 -0.74322,1.8785 -0.6979,0.71369 -2.19094,1.7545904 -3.31787,2.3131204 -1.74016,0.86247 -2.40919,1.03252 -4.43925,1.12834 -1.56291,0.0738 -2.91069,-0.0337 -3.89371,-0.31047 z m 5.44204,-5.1398004 c 0.59103,-0.21091 1.50728,-0.71351 2.03612,-1.11687 1.05948,-0.8081 2.04774,-2.58837 1.72592,-3.10909 -0.13374,-0.21639 -0.28806,-0.1085 -0.44268,0.3095 -0.22826,0.61703 -0.31913,0.57488 -2.36475,-1.09665 -1.17005,-0.95608997 -2.20194,-1.73833997 -2.29309,-1.73833997 -0.0911,0 -0.16571,0.17954 -0.16571,0.39896 0,0.68396997 -0.8421,0.76375997 -1.46686,0.13901 -0.41468,-0.41468 -0.55741,-0.84846 -0.47158,-1.43323 0.0763,-0.51970003 0.005,-0.79989003 -0.18646,-0.73683003 -0.89864,0.29538 -0.12338,2.85874 0.94944,3.13929 0.31125,0.0814 0.89522,-0.0229 1.29773,-0.23169 0.67939,-0.35246997 0.83975,-0.29593997 2.238,0.78895 0.82839,0.64274 1.62199,1.27229 1.76354,1.399 0.4762,0.42623 -0.71097,1.72922 -2.21247,2.42832 -2.36398,1.10067 -4.67895,0.81279 -6.86363,-0.85356 -1.03634,-0.79045 -2.494193,-3.26594 -2.494193,-4.23523997 0,-0.28412 -0.145746,-0.51657 -0.323876,-0.51657 -0.55729,0 -0.05214,1.95905997 0.874111,3.38994997 1.839208,2.84125 5.401548,4.14529 8.400438,3.07509 z m 6.08549,-1.02339 c -0.0974,-0.15752 -0.30589,-0.2864 -0.46341,-0.2864 -0.15752,0 -0.20675,0.12888 -0.1094,0.2864 0.0974,0.15753 0.30589,0.28641 0.46341,0.28641 0.15752,0 0.20675,-0.12888 0.1094,-0.28641 z m -1.52271,-1.20766 c -0.20551,-0.20551 -0.33891,-0.22242 -0.33891,-0.043 0,0.38228 0.3387,0.72099 0.52984,0.52984 0.0814,-0.0814 -0.005,-0.30048 -0.19093,-0.48688 z m 5.2791,-1.82967 c 0.45207,-1.80122997 -0.51555,-6.35332 -1.52527,-7.17549 -0.22421,-0.18256 -0.36684,-0.39731 -0.31697,-0.47721 0.2115,-0.33891 -1.33482,-1.99636 -2.71435,-2.90944 -3.86793,-2.5600696 -8.69827,-2.2963196 -11.97987,0.65411 -0.85366,0.76751 -1.768651,1.94527 -2.153752,2.77225 -0.701257,1.50591 -0.8753,2.72663 -0.388744,2.72663 0.157522,0 0.286403,-0.28151 0.286403,-0.62558 0,-0.97345 1.047503,-2.90252 2.224353,-4.09636 3.40614,-3.45528 9.094,-3.45782 12.91501,-0.006 0.65033,0.58754 1.59649,1.912 2.10771,2.95044 0.83076,1.68752 0.92827,2.14786 0.93359,4.40768003 0.006,2.50173997 0.25134,3.21527997 0.61189,1.77874997 z m -5.75227,-2.58772997 c -0.24706,-1.64750003 -1.76818,-3.41307003 -3.29466,-3.82410003 -1.34448,-0.36204 -2.80524,-0.0891 -3.16989,0.59223 -0.259,0.48394 -0.22473,0.49112 0.51138,0.10713 1.06528,-0.5557 1.67748,-0.52133 3.11576,0.17493 1.30237,0.63047 2.39886,2.34396003 2.39886,3.74871003 0,0.78594997 0.35253,1.33414997 0.52508,0.81651997 0.0591,-0.17721 0.0201,-0.90414997 -0.0865,-1.61541997 z m -13.326686,-0.81901 c 0,-0.39380003 -0.128882,-0.71600003 -0.286404,-0.71600003 -0.15752,0 -0.286404,0.3222 -0.286404,0.71600003 0,0.39381 0.128884,0.71601 0.286404,0.71601 0.157522,0 0.286404,-0.3222 0.286404,-0.71601 z"
       id="path11068" />
    <path
       style="opacity:0.488734;fill:#ff0000;fill-opacity:1;fill-rule:evenodd;stroke-width:0.286853;stroke-dasharray:none"
       d="m -11.023364,-30.091 -3.772664,-3.67289 0.746403,-1.54463 c 1.081592,-2.23828 1.230655,-5.75539 0.343663,-8.10864 -1.328874,-3.52559 -4.249755,-5.6003 -7.891445,-5.60532 -2.414775,-0.003 -4.026887,0.71044 -5.379678,2.38186 -0.715163,0.88361 -0.889188,1.39297 -0.983853,2.87967 -0.135649,2.13033 0.375256,3.37712 1.655062,4.03893 1.150747,0.59507 2.083098,0.54477 2.98006,-0.16078 l 0.756708,-0.59522 1.071936,0.86074 c 0.589563,0.47341 2.155806,1.95682 3.480538,3.29646 l 2.408608,2.43571 -0.485714,0.74129 c -0.267142,0.40771 -1.028812,1.13981 -1.692598,1.62689 -4.976839,3.65194 -12.017235,3.02408 -16.522894,-1.47349 -8.36468,-8.34968 -3.775446,-23.00743 8.159132,-26.05978 12.105711,-3.09612 23.6324765,6.25489 23.6230435,19.16404 -0.0033,4.53703 -1.718997,9.99664 -3.952287,12.57687 l -0.771356,0.89118 z"
       id="path11277" />
    <path
       style="opacity:0.488734;fill:#ff0000;fill-opacity:1;fill-rule:evenodd;stroke-width:0.286853;stroke-dasharray:none"
       d="m -14.121195,-92.716481 c -2.03323,-1.186572 -3.844189,-2.27974 -4.024355,-2.429261 -0.441523,-0.366432 -0.775245,0.0088 -0.404804,0.45516 0.213823,0.25764 0.0915,0.514926 -0.445731,0.937508 -2.084551,1.639711 -4.567732,-2.085353 -3.174785,-4.762555 0.500541,-0.962028 1.466905,-1.854371 2.662219,-2.458301 1.125315,-0.56857 3.774524,-0.60489 5.056304,-0.0693 1.445425,0.60393 3.005877,2.121307 3.839285,3.733283 0.6280895,1.214853 0.7562835,1.849128 0.7692155,3.805963 0.0085,1.291489 -0.118599,2.482434 -0.2825225,2.646547 -0.206605,0.206841 -1.432203,-0.3635 -3.994826,-1.859014 z"
       id="path11279" />
    <path
       style="opacity:0.488734;fill:#ff0000;fill-opacity:1;fill-rule:evenodd;stroke-width:0.286853;stroke-dasharray:none"
       d="m -2.2873065,-85.828999 c -0.07927,-0.07927 -0.08821,-1.786951 -0.01987,-3.794842 0.202885,-5.960255 -1.204971,-11.413359 -4.197985,-16.260209 -0.775542,-1.2559 -1.361239,-2.33314 -1.301552,-2.39386 0.201531,-0.205 1.610538,0.87076 2.898579,2.21305 4.62739898,4.82227 6.276885,13.161906 3.760322,19.011812 -0.555971,1.292391 -0.804352,1.559202 -1.139505,1.224049 z"
       id="path11281" />
    <path
       style="opacity:0.488734;fill:#ff0000;fill-opacity:1;fill-rule:evenodd;stroke-width:0.286853;stroke-dasharray:none"
       d="m -6.3914885,-88.174099 c -1.732738,-1.023262 -3.206962,-1.915673 -3.276053,-1.983131 -0.06909,-0.06746 0.175509,-0.732015 0.543555,-1.476785 0.975358,-1.973726 1.12068,-5.137259 0.331912,-7.225395 -1.2344005,-3.26788 -3.6012015,-5.12329 -6.8473125,-5.36781 -1.672016,-0.12596 -2.108796,-0.28707 -3.360267,-1.23947 -1.245259,-0.94768 -4.057168,-2.41342 -5.650031,-2.94514 -0.859055,-0.28676 -0.56056,-0.65323 1.161573,-1.42608 2.425055,-1.0883 4.357537,-1.41716 7.468137,-1.2709 3.995546,0.18787 5.5466,0.81762 7.2882515,2.95917 1.78512,2.19499 4.289507,7.33218 5.087493,10.435841 0.674312,2.622648 1.093391,9.636128 0.644367,10.783745 -0.232294,0.593693 -0.357407,0.547804 -3.391625,-1.244045 z"
       id="path11283" />
    <path
       style="opacity:0.488734;fill:url(#linearGradient11293);fill-opacity:1;fill-rule:evenodd;stroke-width:0.286853;stroke-dasharray:none"
       d="m 46.774012,-87.133019 c -4.16035,-0.837877 -7.26081,-4.215685 -8.12248,-8.849066 -0.89332,-4.803625 2.11373,-10.027965 7.14317,-12.410235 1.85466,-0.87849 2.10192,-0.92066 5.38083,-0.91768 3.13916,0.003 3.58203,0.0708 5.11323,0.78493 2.53835,1.18378 4.35232,2.65183 5.82257,4.71221 2.26805,3.17839 3.29477,7.056348 2.83739,10.717035 -0.31386,2.512087 -0.24919,2.494576 -3.93163,1.064551 l -3.25429,-1.263758 -0.16354,-1.99458 c -0.28835,-3.516924 -2.25387,-6.068468 -5.17895,-6.723078 -2.0479,-0.4583 -3.65382,-0.0223 -5.18767,1.40848 -1.02697,0.957955 -1.17056,1.254664 -1.27253,2.629511 -0.13433,1.811427 0.56816,3.237537 1.83137,3.717811 0.9489,0.360767 2.28334,-0.11838 2.53461,-0.910085 0.0946,-0.2981 0.2657,-0.542004 0.38019,-0.542004 0.11448,0 1.58286,0.552688 3.26305,1.228196 l 3.05489,1.228196 -0.66343,1.431946 c -1.55205,3.349935 -5.83363,5.44349 -9.58678,4.68762 z"
       id="path11285" />
    <path
       style="fill:none;fill-rule:evenodd;stroke:#000000;stroke-width:0.264583px;stroke-linecap:butt;stroke-linejoin:miter;stroke-opacity:1"
       d="M 46.049095,-32.98247 36.279212,0.11858963"
       id="path11590"
       inkscape:connector-type="polyline"
       inkscape:connector-curvature="0" />
    <path
       style="fill:none;fill-rule:evenodd;stroke:#000000;stroke-width:0.264583px;stroke-linecap:butt;stroke-linejoin:miter;stroke-opacity:1"
       d="M -7.8402865,-34.34823 41.996092,4.3061196"
       id="path11594"
       inkscape:connector-type="polyline"
       inkscape:connector-curvature="0" />
    <path
       style="opacity:0.488734;fill:#ffff00;fill-opacity:1;fill-rule:evenodd;stroke-width:0.264999;stroke-dasharray:none"
       id="path11667"
       d="m 12.262077,11.85898 c -0.510333,0.0823 -1.015724,0.20556 -1.530998,0.24683 C 7.2737215,12.38274 3.6423865,11.77234 0.43135848,10.47017 -0.42046952,10.12472 -1.2193975,9.6609796 -2.0447735,9.2563896 c -0.681175,-0.48723 -1.416293,-0.90673 -2.043523,-1.46168 -1.625518,-1.43819 -2.703774,-3.30502 -2.663269,-5.52075 0.03388,-1.85327997 0.499652,-2.50275997 1.205032,-4.18295 1.320665,-1.8976 1.361998,-2.1681 3.063451,-3.76319 0.574339,-0.53843 1.213022,-1.00383 1.81953498,-1.50574 0,0 -3.66684798,1.48314 -3.66684798,1.48314 v 0 c -0.595862,0.5149 -1.22506,0.99358 -1.787591,1.5447 -1.692558,1.65824 -1.726977,1.93644 -3.030368,3.90527003 -0.686139,1.76213997 -1.1520305,2.45536997 -1.1401265,4.38381997 0.01437,2.32631 1.1700485,4.26423 2.8874615,5.76254 0.649018,0.5662204 1.405631,0.9957604 2.108446,1.4936304 0.837081,0.41836 1.647293,0.89547 2.511248,1.25508 3.14191098,1.30776 6.830933,1.99474 10.235038,1.90369 0.48873,-0.0131 0.972574,-0.10108 1.45886,-0.15162 0,0 3.3495045,-2.54335 3.3495045,-2.54335 z" />
    <rect
       style="opacity:0.488734;fill:#ffff00;fill-opacity:1;fill-rule:evenodd;stroke-width:0.264999;stroke-dasharray:none"
       id="rect11786"
       width="49.236717"
       height="40.502541"
       x="61.076569"
       y="34.37397" />
    <ellipse
       style="opacity:0.488734;fill:#ffff00;fill-opacity:1;fill-rule:evenodd;stroke-width:0.264999;stroke-dasharray:none"
       id="path11905"
       cx="39.712692"
       cy="-136.47443"
       rx="12.507759"
       ry="7.0493197" />
    <path
       sodipodi:type="star"
       style="opacity:0.488734;fill:#ffff00;fill-opacity:1;fill-rule:evenodd;stroke-width:0.264999;stroke-dasharray:none"
       id="path12256"
       inkscape:flatsided="false"
       sodipodi:sides="5"
       sodipodi:cx="587.4082"
       sodipodi:cy="97.417923"
       sodipodi:r1="94.539185"
       sodipodi:r2="57.137032"
       sodipodi:arg1="0.84007565"
       sodipodi:arg2="1.4683942"
       inkscape:rounded="0"
       inkscape:randomized="0"
       d="M 650.50427,167.82065 593.24894,154.25564 539.94899,179.18149 535.15721,120.53661 494.98073,77.547857 549.27458,54.86834 577.7441,3.3739838 616.09132,48.002146 673.86293,59.165638 643.26897,109.42688 Z"
       transform="matrix(0.26458333,0,0,0.26458333,-76.989849,-170.88979)"
       inkscape:transform-center-x="0.79014636"
       inkscape:transform-center-y="-1.6245917" />
    <g
       sodipodi:type="inkscape:box3d"
       id="g12316"
       style="opacity:0.488734;fill:#ffff00;fill-opacity:1;fill-rule:evenodd;stroke-width:1.00157;stroke-dasharray:none"
       inkscape:perspectiveID="#perspective411"
       inkscape:corner0="-0.66495231 : 0.17166215 : 0 : 1.6649523"
       inkscape:corner7="-0.46240576 : 0.072298189 : 0.25 : 1">
      <path
         sodipodi:type="inkscape:box3dside"
         id="path12328"
         style="fill:#e9e9ff;fill-rule:evenodd;stroke:none;stroke-linejoin:round"
         inkscape:box3dsidetype="11"
         d="m 108.16969,-85.40674 14.81654,-5.042638 v 39.112976 l -14.81654,2.144699 z"
         points="122.98623,-90.449378 122.98623,-51.336402 108.16969,-49.191703 108.16969,-85.40674 " />
      <path
         sodipodi:type="inkscape:box3dside"
         id="path12318"
         style="fill:#353564;fill-rule:evenodd;stroke:none;stroke-linejoin:round"
         inkscape:box3dsidetype="6"
         d="m 97.830148,-111.6368 v 51.289118 l 10.339542,11.155979 V -85.40674 Z"
         points="97.830148,-60.347682 108.16969,-49.191703 108.16969,-85.40674 97.830148,-111.6368 " />
      <path
         sodipodi:type="inkscape:box3dside"
         id="path12320"
         style="fill:#4d4d9f;fill-rule:evenodd;stroke:none;stroke-linejoin:round"
         inkscape:box3dsidetype="5"
         d="m 97.830148,-111.6368 20.494602,-10.46265 4.66148,31.650072 -14.81654,5.042638 z"
         points="118.32475,-122.09945 122.98623,-90.449378 108.16969,-85.40674 97.830148,-111.6368 " />
      <path
         sodipodi:type="inkscape:box3dside"
         id="path12326"
         style="fill:#afafde;fill-rule:evenodd;stroke:none;stroke-linejoin:round"
         inkscape:box3dsidetype="13"
         d="m 97.830148,-60.347682 20.494602,-4.449902 4.66148,13.461182 -14.81654,2.144699 z"
         points="118.32475,-64.797584 122.98623,-51.336402 108.16969,-49.191703 97.830148,-60.347682 " />
      <path
         sodipodi:type="inkscape:box3dside"
         id="path12324"
         style="fill:#d7d7ff;fill-rule:evenodd;stroke:none;stroke-linejoin:round"
         inkscape:box3dsidetype="14"
         d="m 118.32475,-122.09945 v 57.301866 l 4.66148,13.461182 v -39.112976 z"
         points="118.32475,-64.797584 122.98623,-51.336402 122.98623,-90.449378 118.32475,-122.09945 " />
      <path
         sodipodi:type="inkscape:box3dside"
         id="path12322"
         style="fill:#8686bf;fill-rule:evenodd;stroke:none;stroke-linejoin:round"
         inkscape:box3dsidetype="3"
         d="m 97.830148,-111.6368 20.494602,-10.46265 v 57.301866 l -20.494602,4.449902 z"
         points="118.32475,-122.09945 118.32475,-64.797584 97.830148,-60.347682 97.830148,-111.6368 " />
    </g>
    <path
       style="opacity:0.488734;fill:#ffff00;fill-opacity:1;fill-rule:evenodd;stroke-width:1.08417;stroke-dasharray:none"
       d="m 661.40474,320.7542 0.0166,-96.68325 37.72636,-19.21381 c 20.74951,-10.5676 38.03684,-19.21382 38.41631,-19.21382 0.37947,0 0.5658,48.34575 0.41407,107.43499 l -0.27587,107.43498 -20.02566,4.51021 c -11.01412,2.48061 -20.26922,4.60852 -20.5669,4.72868 -0.29768,0.12015 -0.8674,0.17383 -1.26606,0.11929 -1.00637,-0.1377 -20.55582,4.08733 -22.54824,4.87313 -0.89304,0.35221 -2.86352,0.76132 -4.37885,0.90914 -1.51533,0.14782 -3.8291,0.60962 -5.14172,1.02623 l -2.38658,0.75748 z"
       id="path12330"
       transform="matrix(0.26458333,0,0,0.26458333,-76.989849,-170.88979)" />
    <path
       style="opacity:0.488734;fill:#ffff00;fill-opacity:1;fill-rule:evenodd;stroke-width:1.08417;stroke-dasharray:none"
       d="m 752.83075,443.00017 c -0.2746,-0.74419 -3.66909,-10.51692 -7.5433,-21.71718 l -7.04403,-20.3641 v -97.98577 c 0,-75.96773 0.29316,-97.88806 1.30466,-97.55089 0.84096,0.28032 3.89615,17.91344 8.59616,49.61313 l 7.29151,49.17825 0.0636,70.08982 c 0.0431,47.46789 -0.29676,70.08983 -1.05286,70.08983 -0.61404,0 -1.34111,-0.60889 -1.61572,-1.35309 z"
       id="path12332"
       transform="matrix(0.26458333,0,0,0.26458333,-76.989849,-170.88979)" />
    <path
       style="opacity:0.488734;fill:#ffff00;fill-opacity:1;fill-rule:evenodd;stroke-width:1.08417;stroke-dasharray:none"
       d="m 469.708,285.31368 c -2.58317,-2.58317 -3.16414,-4.08151 -3.16414,-8.16043 0,-4.29386 0.57069,-5.59572 4.05926,-9.25994 7.70483,-8.09279 18.68939,-8.20322 27.46375,-0.27612 4.03388,3.64438 7.44585,8.63599 7.44585,10.89308 0,0.53056 -3.92453,2.25765 -8.72119,3.83797 l -8.72119,2.87332 -4.47175,-2.16051 c -5.53193,-2.67274 -5.32268,-2.69383 -4.53194,0.45672 0.48771,1.94318 0.0932,2.91892 -1.53192,3.78864 -3.27221,1.75123 -4.35963,1.47437 -7.82673,-1.99273 z"
       id="path12342"
       transform="matrix(0.26458333,0,0,0.26458333,-76.989849,-170.88979)" />
    <path
       style="opacity:0.488734;fill:#ffff00;fill-opacity:1;fill-rule:evenodd;stroke-width:1.08417;stroke-dasharray:none"
       d="m 244.0786,298.35528 c -4.15759,-2.25787 -10.89705,-6.13464 -14.97656,-8.61504 -8.35506,-5.08001 -9.86336,-5.46542 -9.03807,-2.30951 0.84964,3.24901 -3.81963,6.10407 -7.35121,4.49497 -5.58762,-2.54589 -8.13396,-13.50162 -4.44618,-19.12988 0.99569,-1.51961 3.81431,-4.2146 6.2636,-5.98885 3.89985,-2.82505 5.36593,-3.22593 11.79765,-3.22593 8.71201,0 11.34923,0.87153 16.60744,5.4883 6.70851,5.89015 9.58578,12.0137 10.13953,21.57948 0.7082,12.23365 0.17739,12.68836 -8.9962,7.70646 z"
       id="path12344"
       transform="matrix(0.26458333,0,0,0.26458333,-76.989849,-170.88979)" />
    <path
       style="opacity:0.488734;fill:#decd87;fill-opacity:1;fill-rule:evenodd;stroke-width:1.08417;stroke-dasharray:none"
       d="m 196.46801,314.57891 c -12.46091,-7.14924 -20.6333,-19.75418 -23.15656,-35.71628 l -0.86991,-5.503 3.64239,-0.68332 c 4.76774,-0.89443 12.4392,1.09727 17.74141,4.6061 8.62556,5.70813 13.84168,17.84864 12.51574,29.13037 -0.66987,5.69955 -2.56803,11.3015 -3.82263,11.28152 -0.35096,-0.006 -3.07366,-1.40751 -6.05044,-3.11539 z"
       id="path12346"
       transform="matrix(0.26458333,0,0,0.26458333,-76.989849,-170.88979)" />
    <path
       style="opacity:0.488734;fill:#decd87;fill-opacity:1;fill-rule:evenodd;stroke-width:1.08417;stroke-dasharray:none"
       d="m 198.81033,278.65792 c -5.12272,-5.3744 -11.17333,-7.86857 -19.30968,-7.95981 l -7.22515,-0.081 0.52564,-3.24741 c 2.03901,-12.59692 4.92196,-18.10651 13.71606,-26.21263 4.70678,-4.33856 5.05786,-4.47078 9.0475,-3.40739 5.97918,1.59366 18.69901,8.08881 22.94459,11.71623 l 3.63931,3.10943 -3.53245,1.8267 c -3.78024,1.95484 -9.69333,7.85649 -9.70965,9.69088 -0.005,0.61152 -1.20799,3.5474 -2.67232,6.52419 -1.46434,2.97679 -2.67766,6.7519 -2.69628,8.38913 -0.0426,3.74507 -0.88504,3.683 -4.72757,-0.3483 z"
       id="path12417"
       transform="matrix(0.26458333,0,0,0.26458333,-76.989849,-170.88979)" />
    <rect
       style="opacity:0.488734;fill:#ffdd55;fill-opacity:0;fill-rule:evenodd;stroke-width:0.264999;stroke-dasharray:none"
       id="rect12747"
       width="16.096748"
       height="6.4004374"
       x="55.971664"
       y="-52.26186" />
    <rect
       style="opacity:0.488734;fill:#ffdd55;fill-opacity:0;fill-rule:evenodd;stroke-width:0.264999;stroke-dasharray:none"
       id="rect12801"
       width="26.438585"
       height="31.694527"
       x="46.773201"
       y="-71.615318" />
    <path
       sodipodi:type="star"
       style="opacity:0.488734;fill:#ffdd55;fill-opacity:0;fill-rule:evenodd;stroke-width:0.264999;stroke-dasharray:none"
       id="path12855"
       inkscape:flatsided="false"
       sodipodi:sides="5"
       sodipodi:cx="566.24933"
       sodipodi:cy="530.24884"
       sodipodi:r1="105.6184"
       sodipodi:r2="63.833023"
       sodipodi:arg1="0.69266741"
       sodipodi:arg2="1.3209859"
       inkscape:rounded="0"
       inkscape:randomized="0"
       d="m 647.52748,597.69592 -65.49733,-5.59548 -54.81048,36.29081 -14.91817,-64.02076 -51.45198,-40.91339 56.2774,-33.97152 23.0114,-61.57667 49.69952,43.0252 65.6738,2.85691 -25.5614,60.56257 z"
       transform="matrix(0.26458333,0,0,0.26458333,-76.989849,-170.88979)"
       inkscape:transform-center-x="2.1348572"
       inkscape:transform-center-y="-0.55529917" />
    <path
       sodipodi:type="star"
       style="opacity:0.488734;fill:#ff0000;fill-opacity:0;fill-rule:evenodd;stroke-width:0.264999;stroke-dasharray:none"
       id="path13040"
       inkscape:flatsided="false"
       sodipodi:sides="5"
       sodipodi:cx="182.27753"
       sodipodi:cy="814.66315"
       sodipodi:r1="93.895828"
       sodipodi:r2="56.748207"
       sodipodi:arg1="0.78539816"
       sodipodi:arg2="1.4137167"
       inkscape:rounded="0"
       inkscape:randomized="0"
       d="m 248.6719,881.05752 -57.517,-10.34483 -51.50519,27.61225 -7.93521,-57.89865 -42.176788,-40.45169 52.612778,-25.4385 25.43849,-52.61277 40.45169,42.17679 57.89865,7.93521 -27.61225,51.50519 z"
       transform="matrix(0.26458333,0,0,0.26458333,-76.989849,-170.88979)"
       inkscape:transform-center-x="1.2009469"
       inkscape:transform-center-y="-1.200949" />
    <rect
       style="opacity:0.488734;fill:#ff0000;fill-opacity:0;fill-rule:evenodd;stroke-width:0.264999;stroke-dasharray:none"
       id="rect13094"
       width="26.221544"
       height="25.301922"
       x="-53.543953"
       y="-157.53513" />
    <path
       sodipodi:type="spiral"
       style="fill:#e3dbdb;fill-rule:evenodd;stroke:#000000;stroke-width:0.264583"
       id="path13096"
       sodipodi:cx="160.7677"
       sodipodi:cy="846.65515"
       sodipodi:expansion="1"
       sodipodi:revolution="3"
       sodipodi:radius="113.44935"
       sodipodi:argument="-18.054195"
       sodipodi:t0="0"
       d="m 160.7677,846.65515 c 3.98187,4.06201 -3.511,7.37154 -6.75133,6.61814 -8.78112,-2.04168 -10.08356,-13.32822 -6.48494,-20.1208 6.43708,-12.15035 22.85107,-13.41774 33.49027,-6.35175 15.61346,10.36963 16.85226,32.50366 6.21855,46.85974 -14.17306,19.13441 -42.20237,20.32963 -60.22922,6.08536 -22.68494,-17.92496 -23.82916,-51.92308 -5.95215,-73.59869 21.65145,-26.25206 61.65618,-27.34156 86.96815,-5.81896 29.82928,25.36364 30.86202,71.39702 5.68577,100.33763 -29.06698,33.41307 -81.14302,34.38786 -113.7071,5.55257 -37.001371,-32.76449 -37.917463,-90.89264 -5.419373,-127.07657 36.457943,-40.5929 100.644903,-41.4498 140.446033,-5.28618 44.18681,40.14848 44.98419,110.39915 5.15299,153.81551"
       transform="matrix(0.26458333,0,0,0.26458333,-76.989849,-170.88979)" />
    <path
       style="opacity:0.488734;fill:#e3dbdb;fill-opacity:0;fill-rule:evenodd;stroke-width:1.08417;stroke-dasharray:none"
       d="m 200.55105,886.27097 -11.85658,-12.71901 2.77486,-5.95357 c 2.16848,-4.65256 2.76594,-7.60942 2.73403,-13.53086 -0.0472,-8.76021 -0.35689,-10.35643 -3.15025,-16.23702 -7.67929,-16.16648 -29.20616,-20.88604 -40.8989,-8.96668 -6.48685,6.61258 -6.9254,15.85988 -1.05525,22.25132 2.16474,2.35697 8.54535,2.91965 11.45905,1.01052 2.50815,-1.6434 2.79386,-1.44206 14.22334,10.02297 l 11.66378,11.70006 -4.79263,4.72274 c -8.60367,8.47819 -27.66164,12.4273 -39.41317,8.16702 -24.55792,-8.90296 -37.30767,-32.24998 -31.37667,-57.45618 3.96046,-16.83157 15.35857,-30.95793 30.39946,-37.67585 8.88766,-3.96961 14.63843,-5.13567 25.4812,-5.16671 17.41447,-0.0498 33.15892,6.20959 44.85872,17.83427 5.87223,5.83452 11.91333,15.29962 14.72643,23.07311 8.04512,22.23129 5.09656,46.16346 -8.2266,66.77176 -2.10725,3.2595 -3.71968,4.82368 -5.00431,4.85454 -0.37946,0.009 -6.02539,-5.70698 -12.54651,-12.70243 z"
       id="path13221"
       transform="matrix(0.26458333,0,0,0.26458333,-76.989849,-170.88979)" />
    <path
       style="opacity:0.488734;fill:#e3dbdb;fill-opacity:0;fill-rule:evenodd;stroke-width:1.08417;stroke-dasharray:none"
       d="m 200.55105,886.27097 -11.85658,-12.71901 2.77486,-5.95357 c 2.16848,-4.65256 2.76594,-7.60942 2.73403,-13.53086 -0.0472,-8.76021 -0.35689,-10.35643 -3.15025,-16.23702 -7.67929,-16.16648 -29.20616,-20.88604 -40.8989,-8.96668 -6.48685,6.61258 -6.9254,15.85988 -1.05525,22.25132 2.16474,2.35697 8.54535,2.91965 11.45905,1.01052 2.50815,-1.6434 2.79386,-1.44206 14.22334,10.02297 l 11.66378,11.70006 -4.79263,4.72274 c -8.60367,8.47819 -27.66164,12.4273 -39.41317,8.16702 -24.55792,-8.90296 -37.30767,-32.24998 -31.37667,-57.45618 3.96046,-16.83157 15.35857,-30.95793 30.39946,-37.67585 8.88766,-3.96961 14.63843,-5.13567 25.4812,-5.16671 17.41447,-0.0498 33.15892,6.20959 44.85872,17.83427 5.87223,5.83452 11.91333,15.29962 14.72643,23.07311 8.04512,22.23129 5.09656,46.16346 -8.2266,66.77176 -2.10725,3.2595 -3.71968,4.82368 -5.00431,4.85454 -0.37946,0.009 -6.02539,-5.70698 -12.54651,-12.70243 z"
       id="path13223"
       transform="matrix(0.26458333,0,0,0.26458333,-76.989849,-170.88979)" />
    <path
       style="opacity:0.488734;fill:#e3dbdb;fill-opacity:0;fill-rule:evenodd;stroke-width:1.08417;stroke-dasharray:none"
       d="m 200.55105,886.27097 -11.85658,-12.71901 2.77486,-5.95357 c 2.16848,-4.65256 2.76594,-7.60942 2.73403,-13.53086 -0.0472,-8.76021 -0.35689,-10.35643 -3.15025,-16.23702 -7.67929,-16.16648 -29.20616,-20.88604 -40.8989,-8.96668 -6.48685,6.61258 -6.9254,15.85988 -1.05525,22.25132 2.16474,2.35697 8.54535,2.91965 11.45905,1.01052 2.50815,-1.6434 2.79386,-1.44206 14.22334,10.02297 l 11.66378,11.70006 -4.79263,4.72274 c -8.60367,8.47819 -27.66164,12.4273 -39.41317,8.16702 -24.55792,-8.90296 -37.30767,-32.24998 -31.37667,-57.45618 3.96046,-16.83157 15.35857,-30.95793 30.39946,-37.67585 8.88766,-3.96961 14.63843,-5.13567 25.4812,-5.16671 17.41447,-0.0498 33.15892,6.20959 44.85872,17.83427 5.87223,5.83452 11.91333,15.29962 14.72643,23.07311 8.04512,22.23129 5.09656,46.16346 -8.2266,66.77176 -2.10725,3.2595 -3.71968,4.82368 -5.00431,4.85454 -0.37946,0.009 -6.02539,-5.70698 -12.54651,-12.70243 z"
       id="path13225"
       transform="matrix(0.26458333,0,0,0.26458333,-76.989849,-170.88979)" />
    <path
       style="opacity:0.488734;fill:#ff7f2a;fill-opacity:0;fill-rule:evenodd;stroke-width:1.08417;stroke-dasharray:none"
       d="M 138.55595,924.45019 C 121.37452,920.61406 107.88864,913.11277 95.798449,900.66709 70.742492,874.87439 64.870416,834.8937 81.163969,801.02658 97.478818,767.1152 132.02414,747.05553 171.03,748.84347 c 26.91841,1.23387 50.03802,11.62612 68.26192,30.68367 8.57404,8.96627 12.58838,14.72307 18.42993,26.42962 18.3872,36.84821 12.0087,86.05302 -15.2775,117.85329 l -2.25623,2.62948 -12.81569,-12.7823 -12.81568,-12.7823 3.63267,-4.75907 c 9.02377,-11.82177 13.41812,-26.11195 13.44281,-43.71522 0.0288,-20.56043 -5.76912,-35.12318 -19.37884,-48.67394 -13.15645,-13.09946 -27.18607,-18.82428 -46.0945,-18.80896 -32.83698,0.0266 -57.91205,24.35652 -57.91205,56.19113 0,24.39405 16.11548,44.14433 39.31688,48.18467 12.68276,2.20861 27.02151,-1.86946 35.84802,-10.19551 l 4.26322,-4.0215 12.24442,12.20968 c 6.73443,6.71532 12.24442,12.82065 12.24442,13.56739 0,2.13108 -15.52399,13.92425 -23.00579,17.4769 -3.71915,1.76599 -9.68476,4.01112 -13.2569,4.98916 -9.16114,2.50828 -28.54607,3.09511 -37.34516,1.13053 z"
       id="path13227"
       transform="matrix(0.26458333,0,0,0.26458333,-76.989849,-170.88979)" />
    <path
       style="opacity:0.488734;fill:#ff7f2a;fill-opacity:0;fill-rule:evenodd;stroke-width:1.08417;stroke-dasharray:none"
       d="m 200.55105,886.27097 -11.85658,-12.71901 2.77486,-5.95357 c 2.16848,-4.65256 2.76594,-7.60942 2.73403,-13.53086 -0.0472,-8.76021 -0.35689,-10.35643 -3.15025,-16.23702 -7.67929,-16.16648 -29.20616,-20.88604 -40.8989,-8.96668 -6.48685,6.61258 -6.9254,15.85988 -1.05525,22.25132 2.16474,2.35697 8.54535,2.91965 11.45905,1.01052 2.50815,-1.6434 2.79386,-1.44206 14.22334,10.02297 l 11.66378,11.70006 -4.79263,4.72274 c -8.60367,8.47819 -27.66164,12.4273 -39.41317,8.16702 -24.55792,-8.90296 -37.30767,-32.24998 -31.37667,-57.45618 3.96046,-16.83157 15.35857,-30.95793 30.39946,-37.67585 8.88766,-3.96961 14.63843,-5.13567 25.4812,-5.16671 17.41447,-0.0498 33.15892,6.20959 44.85872,17.83427 5.87223,5.83452 11.91333,15.29962 14.72643,23.07311 8.04512,22.23129 5.09656,46.16346 -8.2266,66.77176 -2.10725,3.2595 -3.71968,4.82368 -5.00431,4.85454 -0.37946,0.009 -6.02539,-5.70698 -12.54651,-12.70243 z"
       id="path13298"
       transform="matrix(0.26458333,0,0,0.26458333,-76.989849,-170.88979)" />
    <path
       style="opacity:0.488734;fill:#ffe6d5;fill-opacity:0;fill-rule:evenodd;stroke-width:1.08417;stroke-dasharray:none"
       d="M 138.55595,924.45019 C 121.37452,920.61406 107.88864,913.11277 95.798449,900.66709 70.742492,874.87439 64.870416,834.8937 81.163969,801.02658 97.478818,767.1152 132.02414,747.05553 171.03,748.84347 c 26.91841,1.23387 50.03802,11.62612 68.26192,30.68367 8.57404,8.96627 12.58838,14.72307 18.42993,26.42962 18.3872,36.84821 12.0087,86.05302 -15.2775,117.85329 l -2.25623,2.62948 -12.81569,-12.7823 -12.81568,-12.7823 3.63267,-4.75907 c 9.02377,-11.82177 13.41812,-26.11195 13.44281,-43.71522 0.0288,-20.56043 -5.76912,-35.12318 -19.37884,-48.67394 -13.15645,-13.09946 -27.18607,-18.82428 -46.0945,-18.80896 -32.83698,0.0266 -57.91205,24.35652 -57.91205,56.19113 0,24.39405 16.11548,44.14433 39.31688,48.18467 12.68276,2.20861 27.02151,-1.86946 35.84802,-10.19551 l 4.26322,-4.0215 12.24442,12.20968 c 6.73443,6.71532 12.24442,12.82065 12.24442,13.56739 0,2.13108 -15.52399,13.92425 -23.00579,17.4769 -3.71915,1.76599 -9.68476,4.01112 -13.2569,4.98916 -9.16114,2.50828 -28.54607,3.09511 -37.34516,1.13053 z"
       id="path13300"
       transform="matrix(0.26458333,0,0,0.26458333,-76.989849,-170.88979)" />
    <path
       style="opacity:0.488734;fill:#ffe6d5;fill-opacity:0;fill-rule:evenodd;stroke-width:1.08417;stroke-dasharray:none"
       d="M 138.55595,924.45019 C 121.37452,920.61406 107.88864,913.11277 95.798449,900.66709 70.742492,874.87439 64.870416,834.8937 81.163969,801.02658 97.478818,767.1152 132.02414,747.05553 171.03,748.84347 c 26.91841,1.23387 50.03802,11.62612 68.26192,30.68367 8.57404,8.96627 12.58838,14.72307 18.42993,26.42962 18.3872,36.84821 12.0087,86.05302 -15.2775,117.85329 l -2.25623,2.62948 -12.81569,-12.7823 -12.81568,-12.7823 3.63267,-4.75907 c 9.02377,-11.82177 13.41812,-26.11195 13.44281,-43.71522 0.0288,-20.56043 -5.76912,-35.12318 -19.37884,-48.67394 -13.15645,-13.09946 -27.18607,-18.82428 -46.0945,-18.80896 -32.83698,0.0266 -57.91205,24.35652 -57.91205,56.19113 0,24.39405 16.11548,44.14433 39.31688,48.18467 12.68276,2.20861 27.02151,-1.86946 35.84802,-10.19551 l 4.26322,-4.0215 12.24442,12.20968 c 6.73443,6.71532 12.24442,12.82065 12.24442,13.56739 0,2.13108 -15.52399,13.92425 -23.00579,17.4769 -3.71915,1.76599 -9.68476,4.01112 -13.2569,4.98916 -9.16114,2.50828 -28.54607,3.09511 -37.34516,1.13053 z"
       id="path13371"
       transform="matrix(0.26458333,0,0,0.26458333,-76.989849,-170.88979)" />
    <path
       style="opacity:0.488734;fill:#ffe6d5;fill-opacity:0;fill-rule:evenodd;stroke-width:1.08417;stroke-dasharray:none"
       d="m 149.77461,374.54114 c -22.7391,-4.94523 -43.96885,-21.40625 -54.897511,-42.56615 -14.521065,-28.11545 -13.729254,-60.03485 2.167718,-87.38477 6.490433,-11.16646 20.618243,-25.19662 32.333933,-32.11046 9.01385,-5.31939 24.3865,-10.97752 33.36338,-12.27988 l 5.24298,-0.76065 -5.57961,5.21907 c -3.06878,2.87048 -7.78758,8.15633 -10.48623,11.74632 -4.92379,6.55009 -14.05515,24.46717 -16.59564,32.5631 -0.74728,2.38143 -2.44019,5.54765 -3.76201,7.03605 -6.33929,7.13814 -10.87108,18.49677 -11.9728,30.00899 -1.94401,20.31369 9.68955,42.1712 26.93665,50.60942 3.26559,1.5977 6.17408,3.52161 6.46332,4.27536 1.04293,2.71782 17.08144,14.6351 24.78256,18.41447 4.32958,2.12477 11.39667,4.74781 15.70464,5.82897 4.30796,1.08115 8.11668,2.24977 8.46382,2.5969 0.90176,0.90175 -10.70848,5.10382 -19.00266,6.87758 -8.74796,1.8708 -24.37959,1.83577 -33.16254,-0.0744 z"
       id="path13373"
       transform="matrix(0.26458333,0,0,0.26458333,-76.989849,-170.88979)" />
    <path
       style="opacity:0.488734;fill:#ffcc00;fill-opacity:0;fill-rule:evenodd;stroke-width:1.08417;stroke-dasharray:none"
       d="m 149.77461,374.54114 c -22.7391,-4.94523 -43.96885,-21.40625 -54.897511,-42.56615 -14.521065,-28.11545 -13.729254,-60.03485 2.167718,-87.38477 6.490433,-11.16646 20.618243,-25.19662 32.333933,-32.11046 9.01385,-5.31939 24.3865,-10.97752 33.36338,-12.27988 l 5.24298,-0.76065 -5.57961,5.21907 c -3.06878,2.87048 -7.78758,8.15633 -10.48623,11.74632 -4.92379,6.55009 -14.05515,24.46717 -16.59564,32.5631 -0.74728,2.38143 -2.44019,5.54765 -3.76201,7.03605 -6.33929,7.13814 -10.87108,18.49677 -11.9728,30.00899 -1.94401,20.31369 9.68955,42.1712 26.93665,50.60942 3.26559,1.5977 6.17408,3.52161 6.46332,4.27536 1.04293,2.71782 17.08144,14.6351 24.78256,18.41447 4.32958,2.12477 11.39667,4.74781 15.70464,5.82897 4.30796,1.08115 8.11668,2.24977 8.46382,2.5969 0.90176,0.90175 -10.70848,5.10382 -19.00266,6.87758 -8.74796,1.8708 -24.37959,1.83577 -33.16254,-0.0744 z"
       id="path13375"
       transform="matrix(0.26458333,0,0,0.26458333,-76.989849,-170.88979)" />
  </g>
  <g
     inkscape:groupmode="layer"
     id="layer2"
     inkscape:label="图层 2">
    <path
       style="opacity:0.488734;fill:#ffcc00;fill-opacity:0;fill-rule:evenodd;stroke-width:1.08417;stroke-dasharray:none"
       d="m 149.77461,374.54114 c -22.7391,-4.94523 -43.96885,-21.40625 -54.897511,-42.56615 -14.521065,-28.11545 -13.729254,-60.03485 2.167718,-87.38477 6.490433,-11.16646 20.618243,-25.19662 32.333933,-32.11046 9.01385,-5.31939 24.3865,-10.97752 33.36338,-12.27988 l 5.24298,-0.76065 -5.57961,5.21907 c -3.06878,2.87048 -7.78758,8.15633 -10.48623,11.74632 -4.92379,6.55009 -14.05515,24.46717 -16.59564,32.5631 -0.74728,2.38143 -2.44019,5.54765 -3.76201,7.03605 -6.33929,7.13814 -10.87108,18.49677 -11.9728,30.00899 -1.94401,20.31369 9.68955,42.1712 26.93665,50.60942 3.26559,1.5977 6.17408,3.52161 6.46332,4.27536 1.04293,2.71782 17.08144,14.6351 24.78256,18.41447 4.32958,2.12477 11.39667,4.74781 15.70464,5.82897 4.30796,1.08115 8.11668,2.24977 8.46382,2.5969 0.90176,0.90175 -10.70848,5.10382 -19.00266,6.87758 -8.74796,1.8708 -24.37959,1.83577 -33.16254,-0.0744 z"
       id="path13447"
       transform="scale(0.26458333)" />
    <path
       sodipodi:type="spiral"
       style="fill:none;fill-rule:evenodd;stroke:#000000;stroke-width:0.264583"
       id="path13449"
       sodipodi:cx="25.712509"
       sodipodi:cy="7.6836576"
       sodipodi:expansion="1"
       sodipodi:revolution="3"
       sodipodi:radius="6.7511764"
       sodipodi:argument="-17.916328"
       sodipodi:t0="0"
       d="m 25.712509,7.6836576 c 0.201486,0.2719947 -0.267237,0.4057916 -0.452073,0.334883 -0.500893,-0.1921582 -0.48536,-0.8680797 -0.217693,-1.2390289 0.478794,-0.6635412 1.456659,-0.6040082 2.025985,-0.1005028 0.835509,0.7389145 0.72751,2.0537059 -0.01669,2.8129407 C 26.060143,10.50389 24.398219,10.345109 23.452144,9.3580722 22.261606,8.1159866 22.472207,6.1026559 23.703212,4.9712197 25.194123,3.600899 27.561058,3.8638493 28.87702,5.3394773 c 1.550816,1.7389766 1.235216,4.4607979 -0.485448,5.9607647 -1.986574,1.73177 -5.064097,1.363336 -6.74772,-0.602638 -1.913039,-2.2338652 -1.491649,-5.6676418 0.719828,-7.5346762 2.480943,-2.0945304 6.271364,-1.6201017 8.321632,0.8370179 2.276186,2.7278684 1.748658,6.8752193 -0.954208,9.1085873" />
    <path
       style="opacity:0.488734;fill:#ffcc00;fill-opacity:0;fill-rule:evenodd;stroke-width:1.08417;stroke-dasharray:none"
       d=""
       id="path13451"
       transform="scale(0.26458333)" />
    <path
       d="M 35.334699,9.2368731 C 34.825886,8.8895951 33.697211,8.1344574 32.245511,7.3570767 31.139259,6.7646825 29.371685,5.900786 27.17654,5.2322233 26.668382,5.0765077 26.248407,4.9650035 25.999513,4.9010578 a 4.2960462,4.2960462 90 0 0 -2.138038,8.3218292 c 0.169299,0.0435 0.454799,0.119301 0.80478,0.226542 1.478615,0.45034 2.704726,1.04382 3.523164,1.48209 1.062129,0.568766 1.903634,1.130408 2.301604,1.402034 a 4.2960462,4.2960462 90 0 0 4.843676,-7.0966799 z"
       id="path-1"
       inkscape:path-effect="#path-effect13454;#path-effect13456"
       inkscape:original-d="M 32.912861,12.785213 C 30.275418,10.99035 27.687036,9.7702026 24.930494,9.0619726"
       style="fill:#000000;fill-rule:nonzero;stroke:none;stroke-width:1px;stroke-linecap:butt;stroke-linejoin:miter;stroke-opacity:1" />
    <path
       style="fill:#000000;stroke:none;stroke-opacity:1;stroke-linejoin:miter;stroke-linecap:butt;stroke-width:1px"
       d="m 133.79901,43.489012 c 0,0 -22.13141,-24.664211 -22.13141,-24.664211"
       id="path13460"
       inkscape:path-effect="#path-effect13462"
       inkscape:original-d="M 133.79901,43.489012 111.6676,18.824801" />
    <path
       style="opacity:0.488734;fill:#ffcc00;fill-opacity:0;fill-rule:evenodd;stroke-width:1.08417;stroke-dasharray:none"
       d="m 119.92814,63.348109 c -1.61261,-0.49225 -4.29172,-1.854267 -5.95358,-3.026703 C 109.52331,57.181056 99.922029,52.498345 93.17451,50.176858 85.413944,47.506832 82.689335,45.630483 80.541408,41.476848 75.251273,31.246856 82.51373,18.943196 93.842301,18.943196 c 11.115569,0 39.400469,13.835694 43.901799,21.474774 2.52612,4.287018 2.42098,11.745955 -0.2268,16.088449 -3.35185,5.497218 -11.54867,8.685553 -17.58916,6.84169 z"
       id="path13464"
       transform="scale(0.26458333)" />
    <path
       style="opacity:0.488734;fill:#ffcc00;fill-opacity:0;fill-rule:evenodd;stroke-width:1.08417;stroke-dasharray:none"
       d=""
       id="path13466"
       transform="scale(0.26458333)" />
  </g>
</svg>
