<?xml version="1.0" encoding="UTF-8" standalone="no"?>
<!-- Created with Inkscape (http://www.inkscape.org/) -->

<svg
   width="240mm"
   height="120mm"
   viewBox="0 0 240 120"
   version="1.1"
   id="svg4655"
   inkscape:version="1.2.1 (9c6d41e410, 2022-07-14)"
   sodipodi:docname="opt_cat.svg"
   xmlns:inkscape="http://www.inkscape.org/namespaces/inkscape"
   xmlns:sodipodi="http://sodipodi.sourceforge.net/DTD/sodipodi-0.dtd"
   xmlns="http://www.w3.org/2000/svg"
   xmlns:svg="http://www.w3.org/2000/svg">
  <sodipodi:namedview
     id="namedview4657"
     pagecolor="#ffffff"
     bordercolor="#eeeeee"
     borderopacity="1"
     inkscape:showpageshadow="0"
     inkscape:pageopacity="0"
     inkscape:pagecheckerboard="0"
     inkscape:deskcolor="#d1d1d1"
     inkscape:document-units="mm"
     showgrid="false"
     inkscape:current-layer="layer2" />
  <defs
     id="defs4652" />
  <g
     inkscape:groupmode="layer"
     id="layer2"
     inkscape:label="bg">
    <rect
       style="font-variation-settings:normal;opacity:1;vector-effect:none;fill:#fffafa;fill-opacity:1;fill-rule:evenodd;stroke:none;stroke-width:0.264583;stroke-linecap:butt;stroke-linejoin:miter;stroke-miterlimit:4;stroke-dasharray:none;stroke-dashoffset:0;stroke-opacity:1;-inkscape-stroke:none;stop-color:#000000;stop-opacity:1"
       id="rect513"
       width="52.554142"
       height="51.924244"
       x="108.55457"
       y="17.920458" />
  </g>
  <g
     inkscape:label="图层 1"
     inkscape:groupmode="layer"
     id="layer1"
     transform="translate(70.985165,6.3833298)">
    <path
       style="fill:#000000;stroke-width:0.264583"
       d="m 59.877731,63.768175 c -2.23795,-0.396433 -6.20531,-1.682715 -7.69346,-2.49434 -0.78906,-0.430353 -1.73232,-0.931421 -2.09612,-1.113486 -0.3638,-0.182065 -0.79709,-0.451477 -0.96287,-0.598697 -0.16578,-0.147216 -0.6395,-0.505793 -1.05273,-0.796835 -2.79797,-1.970645 -5.15675,-4.722873 -7.823222,-9.128125 -0.614436,-1.015108 -1.997749,-5.192884 -2.452989,-7.408333 -0.553963,-2.695909 -0.561162,-7.408331 -0.01132,-7.408331 0.218281,0 0.396875,0.178593 0.396875,0.396875 0,0.218281 0.122799,0.396875 0.272886,0.396875 0.15009,0 0.351787,0.208359 0.448218,0.46302 0.202805,0.535579 0.739658,1.12448 1.025101,1.12448 0.108077,0 0.384471,0.161362 0.614211,0.358584 0.22974,0.197221 1.07255,0.569412 1.87292,0.82709 0.80036,0.257681 1.7287,0.572566 2.06297,0.699749 0.33427,0.127185 1.73325,0.231243 3.10885,0.231243 h 2.50109 v 1.160382 c 0,1.405308 0.37758,2.183744 1.66624,3.435202 0.95274,0.925239 1.23168,1.489831 0.73603,1.489831 -0.13395,0 -0.32201,0.357188 -0.41789,0.79375 -0.0959,0.436563 -0.27005,0.79375 -0.38704,0.79375 -0.11699,0 -0.28473,0.20836 -0.37277,0.463021 -0.088,0.254661 -0.39827,0.820208 -0.6894,1.256771 -0.29114,0.436562 -0.61126,0.972344 -0.71139,1.190625 -0.10013,0.218281 -0.30385,0.47815 -0.45271,0.577485 -0.37851,0.252589 -0.33953,2.142402 0.0468,2.271196 0.17463,0.05821 0.3175,0.378989 0.3175,0.712846 0,0.333856 0.1786,0.755232 0.39688,0.936389 0.21828,0.181158 0.39687,0.497129 0.39687,0.70216 0,0.205031 0.1786,0.441314 0.39688,0.525076 0.21828,0.08376 0.39687,0.257715 0.39687,0.386559 0,0.411707 1.1411,1.563737 1.94724,1.965894 0.94019,0.469026 3.11487,0.512788 3.5561,0.07156 0.17462,-0.174625 0.32007,-0.621109 0.3232,-0.992187 0.005,-0.629034 0.0976,-0.579117 1.3639,0.737658 0.94814,0.985957 1.62538,1.455709 2.24325,1.555972 0.48678,0.079 0.88506,0.247113 0.88506,0.373592 0,0.126482 0.47625,0.229965 1.05834,0.229965 0.58208,0 1.05833,-0.119062 1.05833,-0.264583 0,-0.145521 0.17859,-0.264583 0.39687,-0.264583 0.2726,0 0.39688,-0.273402 0.39688,-0.873125 0,-1.067885 -0.40162,-1.508125 -1.37583,-1.508125 -0.40746,0 -0.74084,-0.106156 -0.74084,-0.2359 0,-0.129747 -0.30335,-0.312036 -0.67411,-0.405093 -0.77468,-0.194434 -2.50088,-1.867855 -2.50088,-2.42443 0,-0.205788 -0.11906,-0.374161 -0.26458,-0.374161 -0.14699,0 -0.26458,-0.705556 -0.26458,-1.5875 0,-0.873125 0.11049,-1.5875 0.24554,-1.5875 0.13505,0 0.32736,-0.654843 0.42736,-1.455208 l 0.18182,-1.455208 h 1.67369 c 0.92053,0 1.74727,0.119062 1.83721,0.264583 0.0962,0.155665 1.66354,0.264583 3.80737,0.264583 h 3.64384 l 0.37502,0.727605 c 0.20625,0.400182 0.49426,0.812683 0.64002,0.916667 0.15836,0.112982 0.265,1.923008 0.265,4.497917 v 4.308853 l 1.29473,0.08219 c 1.04488,0.06633 1.42641,0.232267 1.97715,0.859896 0.37533,0.427736 0.89403,0.777703 1.15267,0.777703 0.25864,0 0.47025,0.106619 0.47025,0.236934 0,0.335127 -3.00798,1.713002 -4.8948,2.242172 -0.87312,0.244874 -1.94469,0.572868 -2.38125,0.728874 -0.80338,0.287091 -8.43867,0.556038 -9.65729,0.340169 z m 18.95872,-5.619503 c -0.24084,-0.266121 -0.43788,-0.623308 -0.43788,-0.79375 0,-0.170442 -0.11907,-0.309896 -0.26459,-0.309896 -0.14552,0 -0.26458,-0.271164 -0.26458,-0.602586 0,-0.331425 -0.16747,-0.841687 -0.37216,-1.13392 -0.20469,-0.292232 -0.45655,-1.094097 -0.5597,-1.781918 -0.10314,-0.687822 -0.29286,-1.315678 -0.42159,-1.395235 -0.77155,-0.476848 0.33581,-3.823028 1.47457,-4.455801 0.28489,-0.158308 0.68035,-0.43666 0.87879,-0.618561 0.19844,-0.181901 0.53089,-0.330729 0.73878,-0.330729 0.20789,0 0.37798,-0.11104 0.37798,-0.246753 0,-0.135716 0.25547,-0.327837 0.56772,-0.426942 0.64948,-0.206137 1.79271,-1.413217 1.80517,-1.905993 0.005,-0.181901 0.12742,-0.330729 0.27294,-0.330729 0.14552,0 0.26458,-0.287734 0.26458,-0.63941 0,-0.351674 0.14883,-0.689483 0.33073,-0.750687 0.45532,-0.153199 1.25677,0.07805 1.25677,0.362622 0,0.128548 0.1786,0.233725 0.39688,0.233725 0.21828,0 0.39687,-0.119062 0.39687,-0.264583 0,-0.145521 0.27538,-0.264583 0.61196,-0.264583 0.74477,0 1.93043,-1.189382 2.17598,-2.18281 0.0989,-0.400184 0.28061,-0.727605 0.40376,-0.727605 0.12315,0 0.30233,-0.418034 0.39818,-0.928966 0.0958,-0.510929 0.27984,-0.994206 0.40887,-1.073947 0.12902,-0.07974 0.24213,-1.239285 0.25136,-2.576765 0.0136,-1.976464 0.0699,-2.307932 0.30079,-1.770322 0.51725,1.204615 0.57511,6.531678 0.0963,8.86354 -0.47728,2.324301 -1.85121,6.499709 -2.48127,7.540624 -1.68889,2.790193 -3.44239,5.15171 -4.86115,6.546702 -2.6773,2.632446 -2.99258,2.797847 -3.74604,1.965278 z m -24.92417,-3.416734 c -1.14836,-1.115275 -1.33165,-2.160138 -0.56975,-3.247904 l 0.44979,-0.642167 v 1.069491 c 0,0.811897 0.1598,1.208434 0.66347,1.646369 0.36491,0.317286 0.72778,0.576882 0.80638,0.576882 0.15227,0 1.44056,1.33594 1.44056,1.493843 0,0.05151 -0.39845,0.09366 -0.88545,0.09366 -0.66486,0 -1.13946,-0.246682 -1.905,-0.990171 z M 43.275131,36.495337 c -0.47294,-0.06674 -0.8599,-0.219948 -0.8599,-0.340473 0,-0.120526 -0.32742,-0.300068 -0.7276,-0.398983 -0.82833,-0.204742 -2.182813,-1.390806 -2.182813,-1.911396 0,-0.191056 -0.100216,-0.347374 -0.222702,-0.347374 -0.122486,0 -0.368747,-0.487445 -0.547243,-1.083212 -0.344368,-1.149405 -0.0953,-2.86594 0.67405,-4.645316 0.198263,-0.458555 0.360479,-0.96457 0.360479,-1.124479 0,-0.159909 0.119062,-0.290743 0.264583,-0.290743 0.145521,0 0.265187,-0.148828 0.265925,-0.330729 0.003,-0.738191 2.897931,-4.696895 4.887511,-6.68345 4.97835,-4.970801 11.74946,-7.802054 18.65906,-7.802054 6.91046,0 13.68522,2.833082 18.65708,7.802054 1.8874,1.886302 4.35864,5.184039 4.81744,6.428613 0.0919,0.249301 0.24114,0.512806 0.33164,0.585566 0.19434,0.156232 1.32926,3.11307 1.32926,3.463127 0,0.132572 -0.17859,0.24104 -0.39687,0.24104 -0.21829,0 -0.39688,0.108305 -0.39688,0.240678 0,0.416189 -3.48379,0.869836 -4.65648,0.60635 -1.03569,-0.232704 -2.22269,-1.005212 -2.22269,-1.446544 0,-0.119531 -0.29243,-0.532704 -0.64984,-0.918162 -0.60183,-0.649046 -0.70088,-0.673527 -1.34034,-0.331295 -0.40055,0.214366 -0.75261,0.680152 -0.83843,1.109255 -0.0814,0.406845 -0.25213,0.739718 -0.37946,0.739718 -0.12733,0 -0.23151,0.23974 -0.23151,0.532756 0,0.293017 -0.11323,0.739501 -0.25162,0.992188 -0.13839,0.252687 -0.32556,1.14404 -0.41592,1.980785 -0.1577,1.460395 -0.1947,1.521354 -0.92338,1.521354 -0.41751,0 -0.83268,-0.119063 -0.92262,-0.264583 -0.22387,-0.362226 -5.7674,-0.344474 -6.13151,0.01963 -0.33245,0.332444 -3.47789,0.216077 -8.11082,-0.300061 -2.53789,-0.282738 -3.56328,-0.286012 -5.4217,-0.01731 -1.26054,0.182255 -2.47149,0.488041 -2.69101,0.679525 -1.2116,1.056861 -2.23291,1.306938 -5.5585,1.361049 -1.81901,0.0296 -3.69425,-7.94e-4 -4.16719,-0.06752 z"
       id="path250" />
  </g>
</svg>
